<?xml version="1.0" encoding="UTF-8" standalone="no"?>
<!DOCTYPE svg PUBLIC "-//W3C//DTD SVG 1.1//EN" "http://www.w3.org/Graphics/SVG/1.1/DTD/svg11.dtd">
<svg width="100%" height="100%" viewBox="0 0 405 304" version="1.1" xmlns="http://www.w3.org/2000/svg" xmlns:xlink="http://www.w3.org/1999/xlink" xml:space="preserve" xmlns:serif="http://www.serif.com/" style="fill-rule:evenodd;clip-rule:evenodd;stroke-linejoin:bevel;">
    <g transform="matrix(1,0,0,1,-55047.8,-27580)">
        <g transform="matrix(1,0,0,1,55129.1,27259.2)">
            <g transform="matrix(1,0,0,1,-58.7454,320.26)">
                <path d="M-21.771,303.523L21.529,303.523C21.629,303.523 21.729,303.423 21.729,303.323L21.729,303.223L7.329,278.223L0.029,265.823C0.029,265.723 -0.071,265.723 -0.171,265.723C-0.171,265.723 -0.171,265.723 -0.271,265.823L-21.971,303.323C-21.971,303.423 -21.971,303.523 -21.771,303.523ZM-21.771,303.523C-21.871,303.523 -21.871,303.523 -21.771,303.523ZM-21.771,215.423L21.529,215.423C21.629,215.423 21.729,215.323 21.729,215.223L21.729,215.123L0.129,177.623C0.129,177.523 0.029,177.523 -0.071,177.523C-0.071,177.523 -0.071,177.523 -0.171,177.623L-21.771,215.123C-21.971,215.223 -21.971,215.323 -21.771,215.423ZM-21.771,215.423C-21.871,215.423 -21.871,215.423 -21.771,215.423ZM-21.771,127.324L21.529,127.324C21.629,127.324 21.729,127.224 21.729,127.124L21.729,127.024L0.129,89.524C0.129,89.424 0.029,89.424 -0.071,89.424C-0.071,89.424 -0.071,89.424 -0.171,89.524L-21.771,127.024C-21.971,127.124 -21.971,127.224 -21.771,127.324ZM-21.771,127.324C-21.871,127.324 -21.871,127.324 -21.771,127.324ZM81.729,133.623L38.429,133.623C38.329,133.623 38.229,133.723 38.229,133.823L38.229,133.923L59.929,171.423C60.029,171.523 60.129,171.523 60.129,171.423L81.729,133.923C81.929,133.723 81.929,133.623 81.729,133.623ZM81.729,133.623C81.829,133.623 81.829,133.623 81.729,133.623ZM111.729,177.623L68.429,177.623C68.329,177.623 68.229,177.723 68.229,177.823L68.229,177.923L89.829,215.423C89.929,215.523 90.029,215.523 90.029,215.423L111.729,177.923C111.929,177.823 111.929,177.723 111.729,177.623ZM111.729,177.623C111.829,177.623 111.829,177.623 111.729,177.623ZM141.73,221.724L98.43,221.724C98.33,221.724 98.23,221.824 98.23,221.924L98.23,222.024L119.83,259.524C119.93,259.624 120.03,259.624 120.03,259.524L141.63,222.024C141.93,221.924 141.93,221.824 141.73,221.724ZM141.73,221.724C141.83,221.724 141.83,221.724 141.73,221.724ZM141.729,133.623L98.429,133.623C98.329,133.623 98.229,133.723 98.229,133.823L98.229,133.923L119.829,171.423C119.829,171.523 119.929,171.523 120.029,171.523L120.129,171.423L141.729,133.923C141.929,133.823 141.929,133.723 141.729,133.623ZM141.729,133.623C141.829,133.623 141.829,133.623 141.729,133.623ZM150.23,303.523L171.93,266.023C171.93,265.923 171.929,265.823 171.829,265.823L128.43,265.823C128.33,265.823 128.23,265.923 128.23,266.023L128.23,266.123L149.93,303.623C150.03,303.623 150.13,303.623 150.23,303.523ZM150.23,303.523C150.23,303.623 150.23,303.623 150.23,303.523ZM171.729,177.623L128.429,177.623C128.329,177.623 128.229,177.723 128.229,177.823L128.229,177.923L149.929,215.423C150.029,215.523 150.129,215.523 150.129,215.423L171.829,177.923C171.929,177.823 171.929,177.723 171.729,177.623ZM171.729,177.623C171.829,177.623 171.829,177.623 171.729,177.623ZM270.229,303.524C270.129,303.624 270.029,303.624 270.029,303.524L248.129,266.124L248.129,266.024C248.129,265.924 248.229,265.824 248.329,265.824L291.729,265.824C291.829,265.824 291.829,265.924 291.829,266.024L270.229,303.524ZM270.229,303.524C270.229,303.624 270.229,303.624 270.229,303.524ZM6.929,290.623L-3.271,284.523L6.929,278.623L6.929,290.623ZM6.729,290.923L-3.471,297.023L-3.471,284.823L6.729,290.923ZM-3.771,296.923L-14.271,290.823L-3.771,284.723L-3.771,296.923ZM6.929,291.123L6.929,303.023L-3.271,297.123L6.929,291.123ZM7.229,303.223L7.229,279.023L21.229,303.223L7.229,303.223ZM-0.171,266.223L6.829,278.323L-14.171,290.523L-0.171,266.223ZM-14.471,291.123L6.529,303.223L-21.471,303.223L-14.471,291.123ZM6.929,202.423L-3.271,196.323L6.929,190.423L6.929,202.423ZM-3.371,196.723L6.829,202.823L-3.371,208.923L-3.371,196.723ZM-3.771,208.823L-14.271,202.723L-3.771,196.623L-3.771,208.823ZM6.929,203.023L6.929,214.923L-3.271,209.023L6.929,203.023ZM7.229,215.123L7.229,190.823L21.229,215.023L7.229,215.023L7.229,215.123ZM-0.171,178.023L6.829,190.123L-14.171,202.223L-0.171,178.023ZM-14.471,202.923L6.529,215.023L-21.471,215.023L-14.471,202.923ZM-21.571,221.724C-21.671,221.724 -21.771,221.824 -21.771,221.924L-21.771,222.024L-0.171,259.524C-0.071,259.624 0.029,259.624 0.029,259.524L21.629,222.024C21.629,221.924 21.629,221.824 21.529,221.824L-21.571,221.824L-21.571,221.724ZM14.229,234.424L3.729,240.524L3.729,228.424L14.229,234.424ZM-6.971,234.724L3.229,240.824L-6.971,246.724L-6.971,234.724ZM-6.771,234.424L3.429,228.324L3.429,240.424L-6.771,234.424ZM-6.971,234.124L-6.971,222.224L3.229,228.124L-6.971,234.124ZM-7.271,222.024L-7.271,246.224L-21.271,222.024L-7.271,222.024ZM0.129,259.124L-6.871,247.024L3.629,240.924L14.029,234.824L0.129,259.124ZM14.429,234.224L3.529,227.924L-6.571,222.124L21.429,222.124L14.429,234.224ZM-14.271,114.624L-3.771,108.524L-3.771,120.624L-14.271,114.624ZM6.929,114.324L-3.271,108.224L6.929,102.324L6.929,114.324ZM-3.371,108.524L6.829,114.624L-3.371,120.724L-3.371,108.524ZM6.929,114.924L6.929,126.824L-3.271,120.924L6.929,114.924ZM7.229,126.924L7.229,102.724L21.229,126.924L7.229,126.924ZM-0.171,89.924L6.829,102.024L-14.171,114.124L-0.171,89.924ZM-14.471,114.824L-3.571,121.124L6.529,126.924L-21.471,126.924L-14.471,114.824ZM14.629,146.323L21.829,133.823C21.829,133.723 21.829,133.623 21.729,133.623L-21.671,133.623C-21.771,133.623 -21.871,133.723 -21.871,133.823L-21.871,133.923L-0.271,171.423C-0.271,171.523 -0.171,171.523 -0.071,171.523C-0.071,171.523 -0.071,171.523 0.029,171.423L14.629,146.323ZM14.429,146.023L3.529,139.723L-6.571,133.923L21.429,133.923L14.429,146.023ZM-6.971,146.023L-6.971,134.123L3.229,140.023L-6.971,146.023ZM3.329,140.223L3.329,152.323L-6.871,146.223L3.329,140.223ZM-6.971,146.523L3.229,152.623L-6.971,158.523L-6.971,146.523ZM3.629,140.223L14.129,146.323L3.629,152.423L3.629,140.223ZM-7.271,133.923L-7.271,158.123L-21.271,133.923L-7.271,133.923ZM0.129,170.923L-6.871,158.823L14.129,146.623L0.129,170.923ZM22.729,291.024L29.929,303.524C30.029,303.624 30.129,303.624 30.129,303.524L51.829,266.024C51.829,265.924 51.829,265.824 51.729,265.824L8.329,265.824C8.229,265.824 8.129,265.924 8.129,266.024L8.129,266.124L22.729,291.024ZM44.229,278.424L33.729,284.524L33.729,272.424L44.229,278.424ZM23.029,278.724L33.229,284.824L23.029,290.724L23.029,278.724ZM33.329,284.524L23.129,278.424L33.329,272.324L33.329,284.524ZM23.029,278.224L23.029,266.324L33.229,272.224L23.029,278.224ZM30.129,303.124L23.129,291.024L44.129,278.924L30.129,303.124ZM44.429,278.224L33.529,271.924L23.429,266.124L51.429,266.124L44.429,278.224ZM22.729,266.124L22.729,290.324L8.729,266.124L22.729,266.124ZM38.029,303.423C38.029,303.523 38.129,303.523 38.129,303.523L81.429,303.523C81.529,303.523 81.629,303.423 81.629,303.323L81.629,303.223L60.029,265.823C60.029,265.723 59.929,265.723 59.829,265.723L59.729,265.823L38.029,303.323L38.029,303.423ZM66.929,290.623L56.729,284.523L66.929,278.623L66.929,290.623ZM66.829,290.923L56.629,297.023L56.629,284.823L66.829,290.923ZM56.329,296.923L45.829,290.823L56.329,284.723L56.329,296.923ZM66.929,291.123L66.929,303.023L56.729,297.123L66.929,291.123ZM67.229,303.223L67.229,279.023L81.229,303.223L67.229,303.223ZM59.929,266.223L66.929,278.323L45.929,290.523L59.929,266.223ZM45.529,291.123L66.529,303.223L38.529,303.223L45.529,291.123ZM29.93,215.423C29.93,215.523 30.029,215.523 30.13,215.523L30.23,215.423L51.929,177.923C51.929,177.823 51.929,177.723 51.83,177.723L8.43,177.723C8.33,177.723 8.229,177.823 8.229,177.923L8.229,178.023L29.93,215.423ZM23.03,190.623L33.23,196.723L23.03,202.623L23.03,190.623ZM23.23,190.323L33.43,184.223L33.43,196.323L23.23,190.323ZM33.73,184.223L44.23,190.323L33.73,196.423L33.73,184.223ZM23.03,190.023L23.03,178.123L33.23,184.023L23.03,190.023ZM30.13,215.023L23.13,202.923L44.13,190.723L30.13,215.023ZM44.43,190.123L23.43,178.023L51.429,178.023L44.43,190.123ZM22.73,178.023L22.73,202.223L8.729,178.023L22.73,178.023ZM59.929,177.524C59.829,177.524 59.829,177.524 59.829,177.624L38.129,215.124C38.129,215.224 38.129,215.324 38.229,215.324L81.629,215.324C81.729,215.324 81.829,215.224 81.829,215.124L81.829,215.024L60.129,177.524C60.029,177.624 59.929,177.524 59.929,177.524ZM59.929,178.024L66.929,190.124L45.929,202.224L59.929,178.024ZM45.729,202.724L56.229,196.624L56.229,208.824L45.729,202.724ZM66.929,202.424L56.729,196.324L66.929,190.424L66.929,202.424ZM56.629,196.724L66.829,202.824L56.629,208.924L56.629,196.724ZM66.929,203.024L66.929,214.924L56.729,209.024L66.929,203.024ZM45.529,202.924L56.429,209.224L66.529,215.024L38.529,215.024L45.529,202.924ZM67.229,215.124L67.229,190.824L81.229,215.024L67.229,215.024L67.229,215.124ZM59.929,259.524C60.029,259.624 60.129,259.624 60.129,259.524L81.829,222.024C81.829,221.924 81.829,221.824 81.729,221.824L38.329,221.824C38.229,221.824 38.129,221.924 38.129,222.024L38.129,222.124L59.929,259.524ZM53.029,234.724L63.229,240.824L53.029,246.724L53.029,234.724ZM53.229,234.424L63.429,228.324L63.429,240.424L53.229,234.424ZM63.729,228.324L74.229,234.424L63.729,240.524L63.729,228.324ZM53.029,234.124L53.029,222.224L63.229,228.124L53.029,234.124ZM60.129,259.124L53.129,247.024L74.129,234.824L60.129,259.124ZM74.429,234.224L53.429,222.124L81.429,222.124L74.429,234.224ZM52.729,222.024L52.729,246.224L38.729,222.024L52.729,222.024ZM8.229,259.523L51.529,259.523C51.629,259.523 51.729,259.423 51.729,259.323L51.729,259.223L30.029,221.723C30.029,221.623 29.929,221.623 29.829,221.623L29.729,221.723L8.129,259.223C8.029,259.323 8.029,259.423 8.229,259.523ZM36.929,246.523L26.729,240.423L36.929,234.523L36.929,246.523ZM26.629,240.723L36.829,246.823L26.629,252.923L26.629,240.723ZM26.329,252.923L15.829,246.823L26.329,240.723L26.329,252.923ZM36.929,247.123L36.929,259.023L26.729,253.123L36.929,247.123ZM37.229,259.123L37.229,234.923L51.229,259.123L37.229,259.123ZM29.829,222.123L36.829,234.223L15.829,246.323L29.829,222.123ZM15.529,247.023L36.529,259.123L8.529,259.123L15.529,247.023ZM97.229,234.223L90.029,221.723C90.029,221.623 89.929,221.623 89.829,221.623L89.729,221.723L68.129,259.223C68.129,259.323 68.129,259.423 68.229,259.423L111.629,259.423C111.729,259.423 111.829,259.323 111.829,259.223L111.829,259.123L97.229,234.223ZM75.729,246.823L86.229,240.723L86.229,252.823L75.729,246.823ZM96.929,246.523L86.729,240.423L96.929,234.523L96.929,246.523ZM96.829,246.823L86.629,252.923L86.629,240.823L96.829,246.823ZM96.929,247.123L96.929,259.023L86.729,253.123L96.929,247.123ZM89.929,222.123L96.929,234.223L75.929,246.423L89.929,222.123ZM75.529,247.023L86.429,253.323L96.529,259.123L68.529,259.123L75.529,247.023ZM97.229,259.123L97.229,234.923L111.229,259.123L97.229,259.123ZM29.93,127.323C29.93,127.423 30.029,127.423 30.13,127.423L30.23,127.323L51.929,89.823C51.929,89.723 51.929,89.623 51.83,89.623L8.43,89.623C8.33,89.623 8.229,89.723 8.229,89.823L8.229,89.923L29.93,127.323ZM44.23,102.223L33.73,108.323L33.73,96.223L44.23,102.223ZM23.03,102.523L33.23,108.623L23.03,114.523L23.03,102.523ZM23.23,102.223L33.43,96.123L33.43,108.223L23.23,102.223ZM23.03,101.923L23.03,90.023L33.23,95.923L23.03,101.923ZM30.13,126.923L23.13,114.823L44.13,102.623L30.13,126.923ZM44.43,102.023L33.53,95.723L23.43,89.923L51.429,89.923L44.43,102.023ZM22.73,89.823L22.73,114.023L8.729,89.823L22.73,89.823ZM38.029,127.224C38.029,127.324 38.129,127.324 38.129,127.324L81.429,127.324C81.529,127.324 81.629,127.224 81.629,127.124L81.629,127.024L59.929,89.524C59.929,89.424 59.829,89.424 59.729,89.424L59.629,89.524L37.929,127.024C38.029,127.124 38.029,127.124 38.029,127.224ZM45.729,114.624L56.229,108.524L56.229,120.624L45.729,114.624ZM66.929,114.324L56.729,108.224L66.929,102.324L66.929,114.324ZM56.629,108.524L66.829,114.624L56.629,120.724L56.629,108.524ZM66.929,114.924L66.929,126.824L56.729,120.924L66.929,114.924ZM67.229,126.924L67.229,102.724L81.229,126.924L67.229,126.924ZM59.929,89.924L66.929,102.024L45.929,114.124L59.929,89.924ZM45.529,114.824L56.429,121.124L66.529,126.924L38.529,126.924L45.529,114.824ZM74.229,146.323L63.729,152.423L63.729,140.323L74.229,146.323ZM53.029,146.523L63.229,152.623L53.029,158.523L53.029,146.523ZM63.329,152.323L53.129,146.223L63.329,140.123L63.329,152.323ZM53.029,146.023L53.029,134.123L63.229,140.023L53.029,146.023ZM52.729,133.923L52.729,158.123L38.729,133.923L52.729,133.923ZM60.129,170.923L53.129,158.823L74.129,146.723L60.129,170.923ZM74.429,146.023L63.529,139.723L53.429,133.923L81.429,133.923L74.429,146.023ZM8.229,171.324L51.529,171.324C51.629,171.324 51.729,171.224 51.729,171.124L51.729,171.024L30.029,133.524C30.029,133.424 29.929,133.424 29.829,133.424L29.729,133.524L8.129,171.024C8.029,171.224 8.029,171.324 8.229,171.324ZM15.729,158.724L26.229,152.624L26.229,164.724L15.729,158.724ZM36.929,158.424L26.729,152.324L36.929,146.424L36.929,158.424ZM26.629,152.624L36.829,158.724L26.629,164.824L26.629,152.624ZM36.929,159.024L36.929,170.924L26.729,165.024L36.929,159.024ZM37.229,171.024L37.229,146.824L51.229,171.024L37.229,171.024ZM29.829,134.024L36.829,146.124L15.829,158.224L29.829,134.024ZM15.529,158.924L26.429,165.224L36.529,171.024L8.529,171.024L15.529,158.924ZM97.229,146.124L90.029,133.624C90.029,133.524 89.929,133.524 89.829,133.524L89.729,133.624L68.129,171.124C68.129,171.224 68.129,171.324 68.229,171.324L111.629,171.324C111.729,171.324 111.829,171.224 111.829,171.124L111.829,171.024C111.729,171.124 97.229,146.124 97.229,146.124ZM75.729,158.724L86.229,152.624L86.229,164.724L75.729,158.724ZM96.929,158.424L86.729,152.324L96.929,146.424L96.929,158.424ZM96.829,158.724L86.629,164.824L86.629,152.724L96.829,158.724ZM96.929,159.024L96.929,170.924L86.729,165.024L96.929,159.024ZM89.929,134.024L96.929,146.124L75.929,158.324L89.929,134.024ZM75.529,158.924L86.429,165.224L96.529,171.024L68.529,171.024L75.529,158.924ZM97.229,171.024L97.229,146.824L111.229,171.024L97.229,171.024ZM82.729,291.024L89.929,303.524C90.029,303.624 90.129,303.624 90.129,303.524L111.729,266.024C111.729,265.924 111.729,265.824 111.629,265.824L68.229,265.824C68.129,265.824 68.029,265.924 68.029,266.024L68.029,266.124L82.729,291.024ZM83.029,278.724L93.229,284.824L83.029,290.724L83.029,278.724ZM93.329,284.524L83.129,278.424L93.329,272.324L93.329,284.524ZM93.729,272.424L104.229,278.524L93.729,284.624L93.729,272.424ZM83.029,278.224L83.029,266.324L93.229,272.224L83.029,278.224ZM90.129,303.124L83.129,291.024L104.129,278.924L90.129,303.124ZM104.529,278.224L83.529,266.124L111.529,266.124L104.529,278.224ZM82.729,266.124L82.729,290.324L68.729,266.124L82.729,266.124ZM127.229,278.323L120.029,265.823C120.029,265.723 119.929,265.723 119.829,265.723L119.729,265.823L98.029,303.323C98.029,303.423 98.029,303.523 98.129,303.523L141.529,303.523C141.629,303.523 141.729,303.423 141.729,303.323L141.729,303.223L127.229,278.323ZM126.929,290.623L116.729,284.523L126.929,278.623L126.929,290.623ZM126.829,290.923L116.629,297.023L116.629,284.823L126.829,290.923ZM116.329,296.923L105.829,290.823L116.329,284.723L116.329,296.923ZM126.929,291.123L126.929,303.023L116.729,297.123L126.929,291.123ZM119.929,266.223L126.929,278.323L105.929,290.523L119.929,266.223ZM105.529,291.123L126.529,303.223L98.529,303.223L105.529,291.123ZM127.229,303.223L127.229,279.023L141.229,303.223L127.229,303.223ZM83.029,190.623L93.229,196.723L83.029,202.623L83.029,190.623ZM83.229,190.323L93.429,184.223L93.429,196.323L83.229,190.323ZM93.729,184.223L104.229,190.323L93.729,196.423L93.729,184.223ZM83.029,190.023L83.029,178.123L93.229,184.023L83.029,190.023ZM82.729,178.023L82.729,202.223L68.729,178.023L82.729,178.023ZM90.129,215.023L83.129,202.923L104.129,190.723L90.129,215.023ZM104.529,190.123L83.529,178.023L111.529,178.023L104.529,190.123ZM127.229,190.124L120.029,177.624C120.029,177.524 119.929,177.524 119.829,177.524L119.729,177.624L98.129,215.124C98.129,215.224 98.129,215.324 98.229,215.324L141.629,215.324C141.729,215.324 141.829,215.224 141.829,215.124L141.829,215.024L127.229,190.124ZM126.929,202.424L116.729,196.324L126.929,190.424L126.929,202.424ZM116.629,196.724L126.829,202.824L116.629,208.924L116.629,196.724ZM116.329,208.824L105.829,202.724L116.329,196.624L116.329,208.824ZM126.929,203.024L126.929,214.924L116.729,209.024L126.929,203.024ZM119.929,178.024L126.929,190.124L105.929,202.224L119.929,178.024ZM105.529,202.924L126.529,215.024L98.529,215.024L105.529,202.924ZM127.229,215.124L127.229,190.824L141.229,215.024L127.229,215.024L127.229,215.124ZM134.23,234.424L123.73,240.524L123.73,228.424L134.23,234.424ZM113.03,234.724L123.23,240.824L113.03,246.724L113.03,234.724ZM113.23,234.424L123.43,228.324L123.43,240.424L113.23,234.424ZM113.03,234.124L113.03,222.224L123.23,228.124L113.03,234.124ZM112.73,222.024L112.73,246.224L98.73,222.024L112.73,222.024ZM120.13,259.124L113.13,247.024L134.13,234.824L120.13,259.124ZM134.53,234.224L123.63,227.924L113.53,222.124L141.53,222.124L134.53,234.224ZM82.729,114.823L89.929,127.323C90.029,127.423 90.129,127.423 90.129,127.323L111.729,89.823C111.729,89.723 111.729,89.623 111.629,89.623L68.229,89.623C68.129,89.623 68.029,89.723 68.029,89.823L68.029,89.923L82.729,114.823ZM104.229,102.223L93.729,108.323L93.729,96.223L104.229,102.223ZM83.029,102.523L93.229,108.623L83.029,114.523L83.029,102.523ZM83.229,102.223L93.429,96.123L93.429,108.223L83.229,102.223ZM83.029,101.923L83.029,90.023L93.229,95.923L83.029,101.923ZM90.129,126.923L83.129,114.823L104.129,102.623L90.129,126.923ZM104.529,102.023L93.629,95.723L83.529,89.923L111.529,89.923L104.529,102.023ZM82.729,89.823L82.729,114.023L68.729,89.823L82.729,89.823ZM105.329,114.524L98.129,127.024C98.129,127.124 98.129,127.224 98.229,127.224L141.629,127.224C141.729,127.224 141.829,127.124 141.829,127.024L141.829,126.924L120.229,89.424C120.229,89.324 120.129,89.324 120.029,89.324L119.929,89.424L105.329,114.524ZM105.529,114.824L116.429,121.124L126.529,126.924L98.529,126.924L105.529,114.824ZM116.629,108.524L126.829,114.624L116.629,120.724L116.629,108.524ZM126.929,114.924L126.929,126.824L116.729,120.924L126.929,114.924ZM126.929,114.324L116.729,108.224L126.929,102.324L126.929,114.324ZM116.329,120.724L105.829,114.624L116.329,108.524L116.329,120.724ZM127.229,126.924L127.229,102.724L141.229,126.924L127.229,126.924ZM119.929,89.924L126.929,102.024L105.929,114.124L119.929,89.924ZM134.229,146.323L123.729,152.423L123.729,140.323L134.229,146.323ZM113.029,146.523L123.229,152.623L113.029,158.523L113.029,146.523ZM113.229,146.323L123.429,140.223L123.429,152.323L113.229,146.323ZM113.029,146.023L113.029,134.123L123.229,140.023L113.029,146.023ZM112.729,133.923L112.729,158.123L98.729,133.923L112.729,133.923ZM120.129,170.923L113.129,158.823L134.129,146.623L120.129,170.923ZM134.529,146.023L123.629,139.723L113.529,133.923L141.529,133.923L134.529,146.023ZM150.13,303.123L143.13,291.023L164.13,278.923L150.13,303.123ZM164.23,278.423L153.73,284.523L153.73,272.423L164.23,278.423ZM143.03,278.723L153.23,284.823L143.03,290.723L143.03,278.723ZM153.43,284.523L143.23,278.423L153.43,272.323L153.43,284.523ZM143.03,278.223L143.03,266.323L153.23,272.223L143.03,278.223ZM164.53,278.223L153.63,271.923L143.53,266.123L171.53,266.123L164.53,278.223ZM142.73,266.123L142.73,290.323L128.73,266.123L142.73,266.123ZM202.729,291.024L209.929,303.524C210.029,303.624 210.129,303.624 210.129,303.524L231.729,266.024C231.729,265.924 231.729,265.824 231.629,265.824L188.229,265.824C188.129,265.824 188.029,265.924 188.029,266.024L188.029,266.124L202.729,291.024ZM203.029,278.724L213.229,284.824L203.029,290.724L203.029,278.724ZM213.429,284.524L203.229,278.424L213.429,272.324L213.429,284.524ZM213.729,272.424L224.229,278.524L213.729,284.624L213.729,272.424ZM203.029,278.224L203.029,266.324L213.229,272.224L203.029,278.224ZM210.129,303.124L203.129,291.024L224.129,278.924L210.129,303.124ZM224.529,278.224L203.529,266.124L231.529,266.124L224.529,278.224ZM202.729,266.124L202.729,290.324L188.729,266.124L202.729,266.124ZM158.229,303.523L201.529,303.523C201.629,303.523 201.729,303.423 201.729,303.323L201.729,303.223L180.029,265.823C180.029,265.723 179.929,265.723 179.829,265.723L179.729,265.823L158.029,303.323C158.029,303.423 158.129,303.523 158.229,303.523ZM186.929,290.623L176.729,284.523L186.929,278.623L186.929,290.623ZM186.829,290.923L176.629,297.023L176.629,284.823L186.829,290.923ZM176.329,296.923L165.829,290.823L176.329,284.723L176.329,296.923ZM186.929,291.123L186.929,303.023L176.729,297.123L186.929,291.123ZM187.329,303.223L187.329,279.023L201.329,303.223L187.329,303.223ZM179.929,266.223L186.929,278.323L165.929,290.523L179.929,266.223ZM165.529,291.123L186.529,303.223L158.529,303.223L165.529,291.123ZM143.029,190.623L153.229,196.723L143.029,202.623L143.029,190.623ZM143.229,190.323L153.429,184.223L153.429,196.323L143.229,190.323ZM153.729,184.223L164.229,190.323L153.729,196.423L153.729,184.223ZM143.029,190.023L143.029,178.123L153.229,184.023L143.029,190.023ZM142.729,178.023L142.729,202.223L128.729,178.023L142.729,178.023ZM150.129,215.023L143.129,202.923L164.129,190.723L150.129,215.023ZM164.529,190.123L143.529,178.023L171.529,178.023L164.529,190.123ZM187.229,190.124L180.029,177.624C180.029,177.524 179.929,177.524 179.829,177.524L179.729,177.624L158.029,215.124C158.029,215.224 158.029,215.324 158.129,215.324L201.529,215.324C201.629,215.324 201.729,215.224 201.729,215.124L201.729,215.024L187.229,190.124ZM165.829,202.724L176.329,196.624L176.329,208.824L165.829,202.724ZM186.929,202.424L176.729,196.324L186.929,190.424L186.929,202.424ZM176.629,196.724L186.829,202.824L176.629,208.924L176.629,196.724ZM186.929,203.024L186.929,214.924L176.729,209.024L186.929,203.024ZM179.929,178.024L186.929,190.124L165.929,202.224L179.929,178.024ZM165.529,202.924L176.429,209.224L186.529,215.024L158.529,215.024L165.529,202.924ZM187.329,215.124L187.329,190.824L201.329,215.024L187.329,215.024L187.329,215.124ZM201.829,221.724L158.53,221.724C158.43,221.724 158.329,221.824 158.329,221.924L158.329,222.024L180.03,259.524C180.13,259.624 180.23,259.624 180.23,259.524L201.93,222.024C201.93,221.924 201.929,221.824 201.829,221.724ZM173.03,234.724L183.23,240.824L173.03,246.724L173.03,234.724ZM173.23,234.424L183.43,228.324L183.43,240.424L173.23,234.424ZM183.73,228.324L194.23,234.424L183.73,240.524L183.73,228.324ZM173.03,234.124L173.03,222.224L183.23,228.124L173.03,234.124ZM172.73,222.024L172.73,246.224L158.73,222.024L172.73,222.024ZM180.13,259.124L173.13,247.024L194.13,234.824L180.13,259.124ZM194.53,234.224L173.53,222.124L201.53,222.124L194.53,234.224ZM149.929,221.623C149.829,221.623 149.829,221.623 149.829,221.723L128.129,259.223C128.129,259.323 128.129,259.423 128.229,259.423L171.629,259.423C171.729,259.423 171.829,259.323 171.829,259.223L171.829,259.123L150.129,221.623L149.929,221.623ZM149.929,222.123L156.929,234.223L135.929,246.323L149.929,222.123ZM156.929,246.523L146.729,240.423L156.929,234.523L156.929,246.523ZM146.629,240.723L156.829,246.823L146.629,252.923L146.629,240.723ZM146.329,252.923L135.829,246.823L146.329,240.723L146.329,252.923ZM156.929,247.123L156.929,259.023L146.729,253.123L156.929,247.123ZM135.529,247.023L156.529,259.123L128.529,259.123L135.529,247.023ZM157.329,259.123L157.329,234.923L171.329,259.123L157.329,259.123ZM217.229,234.223L210.029,221.723C210.029,221.623 209.929,221.623 209.829,221.623L209.729,221.723L188.129,259.223C188.129,259.323 188.129,259.423 188.229,259.423L231.629,259.423C231.729,259.423 231.829,259.323 231.829,259.223L231.829,259.123L217.229,234.223ZM195.829,246.823L206.329,240.723L206.329,252.823L195.829,246.823ZM216.929,246.523L206.729,240.423L216.929,234.523L216.929,246.523ZM216.829,246.823L206.629,252.923L206.629,240.823L216.829,246.823ZM216.929,247.123L216.929,259.023L206.729,253.123L216.929,247.123ZM209.929,222.123L216.929,234.223L195.929,246.423L209.929,222.123ZM195.529,247.023L206.429,253.323L216.529,259.123L188.529,259.123L195.529,247.023ZM217.329,259.123L217.329,234.923L231.329,259.123L217.329,259.123ZM149.93,127.323C150.03,127.423 150.13,127.423 150.13,127.323L171.93,89.823C171.93,89.723 171.929,89.623 171.829,89.623L128.43,89.623C128.33,89.623 128.23,89.723 128.23,89.823L128.23,89.923L149.93,127.323ZM164.23,102.223L153.73,108.323L153.73,96.223L164.23,102.223ZM143.03,102.523L153.23,108.623L143.03,114.523L143.03,102.523ZM143.23,102.223L153.43,96.123L153.43,108.223L143.23,102.223ZM143.03,101.923L143.03,90.023L153.23,95.923L143.03,101.923ZM150.13,126.923L143.13,114.823L164.13,102.623L150.13,126.923ZM164.53,102.023L153.63,95.723L143.53,89.923L171.53,89.923L164.53,102.023ZM142.73,89.823L142.73,114.023L128.73,89.823L142.73,89.823ZM158.129,127.224C158.129,127.324 158.229,127.324 158.229,127.324L201.529,127.324C201.629,127.324 201.729,127.224 201.729,127.124L201.729,127.024L180.129,89.524C180.129,89.424 180.029,89.424 179.929,89.424L179.829,89.524L158.129,127.024C158.029,127.124 158.029,127.124 158.129,127.224ZM165.829,114.624L176.329,108.524L176.329,120.624L165.829,114.624ZM186.929,114.324L176.729,108.224L186.929,102.324L186.929,114.324ZM176.629,108.524L186.829,114.624L176.629,120.724L176.629,108.524ZM186.929,114.924L186.929,126.824L176.729,120.924L186.929,114.924ZM187.329,126.924L187.329,102.724L201.329,126.924L187.329,126.924ZM179.929,89.924L186.929,102.024L165.929,114.124L179.929,89.924ZM165.529,114.824L176.429,121.124L186.529,126.924L158.529,126.924L165.529,114.824ZM201.829,133.623L158.529,133.623C158.429,133.623 158.329,133.723 158.329,133.823L158.329,133.923L180.029,171.423C180.129,171.523 180.229,171.523 180.229,171.423L201.829,133.923C201.929,133.723 201.929,133.623 201.829,133.623ZM194.229,146.323L183.729,152.423L183.729,140.323L194.229,146.323ZM173.029,146.523L183.229,152.623L173.029,158.523L173.029,146.523ZM183.429,152.323L173.229,146.223L183.429,140.123L183.429,152.323ZM173.029,146.023L173.029,134.123L183.229,140.023L173.029,146.023ZM172.729,133.923L172.729,158.123L158.729,133.923L172.729,133.923ZM180.129,170.923L173.129,158.823L194.129,146.723L180.129,170.923ZM194.529,146.023L183.629,139.723L173.529,133.923L201.529,133.923L194.529,146.023ZM149.929,133.524C149.829,133.524 149.829,133.524 149.829,133.624L128.129,171.124C128.129,171.224 128.129,171.324 128.229,171.324L171.629,171.324C171.729,171.324 171.829,171.224 171.829,171.124L171.829,171.024L150.129,133.524L149.929,133.524ZM149.929,134.024L156.929,146.124L135.929,158.224L149.929,134.024ZM135.829,158.724L146.329,152.624L146.329,164.724L135.829,158.724ZM156.929,158.424L146.729,152.324L156.929,146.424L156.929,158.424ZM146.629,152.624L156.829,158.724L146.629,164.824L146.629,152.624ZM156.929,159.024L156.929,170.924L146.729,165.024L156.929,159.024ZM135.529,158.924L146.429,165.224L156.529,171.024L128.529,171.024L135.529,158.924ZM157.329,171.024L157.329,146.824L171.329,171.024L157.329,171.024ZM217.229,146.124L210.029,133.624C210.029,133.524 209.929,133.524 209.829,133.524L209.729,133.624L188.129,171.124C188.129,171.224 188.129,171.324 188.229,171.324L231.629,171.324C231.729,171.324 231.829,171.224 231.829,171.124L231.829,171.024C231.729,171.124 217.229,146.124 217.229,146.124ZM195.829,158.724L206.329,152.624L206.329,164.724L195.829,158.724ZM216.929,158.424L206.729,152.324L216.929,146.424L216.929,158.424ZM216.829,158.724L206.629,164.824L206.629,152.724L216.829,158.724ZM216.929,159.024L216.929,170.924L206.729,165.024L216.929,159.024ZM209.929,134.024L216.929,146.124L195.929,158.324L209.929,134.024ZM195.529,158.924L206.429,165.224L216.529,171.024L188.529,171.024L195.529,158.924ZM217.329,171.024L217.329,146.824L231.329,171.024L217.329,171.024ZM218.229,303.523L261.529,303.523C261.629,303.523 261.729,303.423 261.729,303.323L261.729,303.223L247.329,278.223L240.029,265.823C240.029,265.723 239.929,265.723 239.829,265.723L239.729,265.823L218.029,303.323C218.029,303.423 218.129,303.523 218.229,303.523ZM246.929,290.623L236.729,284.523L246.929,278.623L246.929,290.623ZM246.829,290.923L236.629,297.023L236.629,284.823L246.829,290.923ZM236.329,296.923L225.829,290.823L236.329,284.723L236.329,296.923ZM246.929,291.123L246.929,303.023L236.729,297.123L246.929,291.123ZM247.329,303.223L247.329,279.023L261.329,303.223L247.329,303.223ZM239.929,266.223L246.929,278.323L225.929,290.523L239.929,266.223ZM225.529,291.123L246.529,303.223L218.529,303.223L225.529,291.123ZM231.829,177.623L188.529,177.623C188.429,177.623 188.329,177.723 188.329,177.823L188.329,177.923L209.929,215.423C210.029,215.523 210.129,215.523 210.129,215.423L231.829,177.923C231.929,177.823 231.929,177.723 231.829,177.623ZM203.029,190.623L213.229,196.723L203.029,202.623L203.029,190.623ZM203.229,190.323L213.429,184.223L213.429,196.323L203.229,190.323ZM213.729,184.223L224.229,190.323L213.729,196.423L213.729,184.223ZM203.029,190.023L203.029,178.123L213.229,184.023L203.029,190.023ZM202.729,178.023L202.729,202.223L188.729,178.023L202.729,178.023ZM210.129,215.023L203.129,202.923L224.129,190.723L210.129,215.023ZM224.529,190.123L203.529,178.023L231.529,178.023L224.529,190.123ZM247.229,190.124L240.029,177.624C240.029,177.524 239.929,177.524 239.829,177.524L239.729,177.624L218.129,215.124C218.129,215.224 218.129,215.324 218.229,215.324L261.629,215.324C261.729,215.324 261.829,215.224 261.829,215.124L261.829,215.024L247.229,190.124ZM246.929,202.424L236.729,196.324L246.929,190.424L246.929,202.424ZM236.629,196.724L246.829,202.824L236.629,208.924L236.629,196.724ZM236.329,208.824L225.829,202.724L236.329,196.624L236.329,208.824ZM246.929,203.024L246.929,214.924L236.729,209.024L246.929,203.024ZM239.929,178.024L246.929,190.124L225.929,202.224L239.929,178.024ZM225.529,202.924L246.529,215.024L218.529,215.024L225.529,202.924ZM247.329,215.124L247.329,190.824L261.329,215.024L247.329,215.024L247.329,215.124ZM261.829,221.724L218.53,221.724C218.43,221.724 218.329,221.824 218.329,221.924L218.329,222.024L239.93,259.524C240.03,259.624 240.13,259.624 240.13,259.524L261.73,222.024C262.03,221.924 261.929,221.824 261.829,221.724ZM254.23,234.424L243.73,240.524L243.73,228.424L254.23,234.424ZM233.03,234.724L243.23,240.824L233.03,246.724L233.03,234.724ZM233.23,234.424L243.43,228.324L243.43,240.424L233.23,234.424ZM233.03,234.124L233.03,222.224L243.23,228.124L233.03,234.124ZM232.73,222.024L232.73,246.224L218.73,222.024L232.73,222.024ZM240.13,259.124L233.13,247.024L254.13,234.824L240.13,259.124ZM254.53,234.224L243.63,227.924L233.53,222.124L261.53,222.124L254.53,234.224ZM202.729,114.823L209.929,127.323C210.029,127.423 210.129,127.423 210.129,127.323L231.729,89.823C231.729,89.723 231.729,89.623 231.629,89.623L188.229,89.623C188.129,89.623 188.029,89.723 188.029,89.823L188.029,89.923L202.729,114.823ZM224.229,102.223L213.729,108.323L213.729,96.223L224.229,102.223ZM203.029,102.523L213.229,108.623L203.029,114.523L203.029,102.523ZM203.229,102.223L213.429,96.123L213.429,108.223L203.229,102.223ZM203.029,101.923L203.029,90.023L213.229,95.923L203.029,101.923ZM210.129,126.923L203.129,114.823L224.129,102.623L210.129,126.923ZM224.529,102.023L213.629,95.723L203.529,89.923L231.529,89.923L224.529,102.023ZM202.729,89.823L202.729,114.023L188.729,89.823L202.729,89.823ZM225.329,114.524L218.129,127.024C218.129,127.124 218.129,127.224 218.229,127.224L261.629,127.224C261.729,127.224 261.829,127.124 261.829,127.024L261.829,126.924L240.229,89.424C240.229,89.324 240.129,89.324 240.029,89.324L239.929,89.424L225.329,114.524ZM225.529,114.824L236.429,121.124L246.529,126.924L218.529,126.924L225.529,114.824ZM236.629,108.524L246.829,114.624L236.629,120.724L236.629,108.524ZM246.929,114.924L246.929,126.824L236.729,120.924L246.929,114.924ZM246.929,114.324L236.729,108.224L246.929,102.324L246.929,114.324ZM236.329,120.724L225.829,114.624L236.329,108.524L236.329,120.724ZM247.329,126.924L247.329,102.724L261.329,126.924L247.329,126.924ZM239.929,89.924L246.929,102.024L225.929,114.124L239.929,89.924ZM261.829,133.623L218.529,133.623C218.429,133.623 218.329,133.723 218.329,133.823L218.329,133.923L239.929,171.423C239.929,171.523 240.029,171.523 240.129,171.523L240.229,171.423L261.829,133.923C262.029,133.823 261.929,133.723 261.829,133.623ZM254.229,146.323L243.729,152.423L243.729,140.323L254.229,146.323ZM233.029,146.523L243.229,152.623L233.029,158.523L233.029,146.523ZM233.229,146.323L243.429,140.223L243.429,152.323L233.229,146.323ZM233.029,146.023L233.029,134.123L243.229,140.023L233.029,146.023ZM232.729,133.923L232.729,158.123L218.729,133.923L232.729,133.923ZM240.129,170.923L233.129,158.823L254.129,146.623L240.129,170.923ZM254.529,146.023L243.629,139.723L233.529,133.923L261.529,133.923L254.529,146.023ZM270.129,303.124L263.129,291.024L284.129,278.924L270.129,303.124ZM263.129,278.724L273.329,284.824L263.129,290.724L263.129,278.724ZM273.429,284.524L263.229,278.424L273.429,272.324L273.429,284.524ZM273.729,272.424L284.229,278.524L273.729,284.624L273.729,272.424ZM263.129,278.224L263.129,266.324L273.329,272.224L263.129,278.224ZM284.529,278.224L263.529,266.124L291.529,266.124L284.529,278.224ZM262.729,266.124L262.729,290.324L248.729,266.124L262.729,266.124ZM322.829,291.024L330.029,303.524C330.129,303.624 330.229,303.624 330.229,303.524L351.829,266.024C351.829,265.924 351.829,265.824 351.729,265.824L308.329,265.824C308.229,265.824 308.129,265.924 308.129,266.024L308.129,266.124L322.829,291.024ZM323.129,278.724L333.329,284.824L323.129,290.724L323.129,278.724ZM333.429,284.524L323.229,278.424L333.429,272.324L333.429,284.524ZM333.729,272.424L344.229,278.524L333.729,284.624L333.729,272.424ZM323.129,278.224L323.129,266.324L333.329,272.224L323.129,278.224ZM330.129,303.124L323.129,291.024L344.129,278.924L330.129,303.124ZM344.529,278.224L323.529,266.124L351.529,266.124L344.529,278.224ZM322.729,266.124L322.729,290.324L308.729,266.124L322.729,266.124ZM278.229,303.523L321.529,303.523C321.629,303.523 321.729,303.423 321.729,303.323L321.729,303.223L300.029,265.823C300.029,265.723 299.929,265.723 299.829,265.723L299.729,265.823L278.129,303.323C278.029,303.423 278.129,303.523 278.229,303.523ZM307.029,290.623L296.829,284.523L307.029,278.623L307.029,290.623ZM306.829,290.923L296.629,297.023L296.629,284.823L306.829,290.923ZM296.329,296.923L285.829,290.823L296.329,284.723L296.329,296.923ZM307.029,291.123L307.029,303.023L296.829,297.123L307.029,291.123ZM307.329,303.223L307.329,279.023L321.329,303.223L307.329,303.223ZM299.929,266.223L306.929,278.323L296.429,284.423L285.929,290.423L299.929,266.223ZM285.529,291.123L306.529,303.223L278.529,303.223L285.529,291.123ZM291.829,177.623L248.529,177.623C248.429,177.623 248.329,177.723 248.329,177.823L248.329,177.923L270.029,215.423C270.129,215.523 270.229,215.523 270.229,215.423L291.929,177.923C292.029,177.823 291.929,177.723 291.829,177.623ZM263.129,190.623L273.329,196.723L263.129,202.623L263.129,190.623ZM273.429,196.423L263.229,190.323L273.429,184.223L273.429,196.423ZM273.729,184.223L284.229,190.323L273.729,196.423L273.729,184.223ZM263.129,190.023L263.129,178.123L273.329,184.023L263.129,190.023ZM262.729,178.023L262.729,202.223L248.729,178.023L262.729,178.023ZM270.129,215.023L263.129,202.923L284.129,190.823L270.129,215.023ZM284.529,190.123L263.529,178.023L291.529,178.023L284.529,190.123ZM307.329,190.124L300.13,177.624C300.13,177.524 300.03,177.524 299.93,177.524C299.93,177.524 299.929,177.524 299.829,177.624L278.23,215.124C278.23,215.224 278.229,215.324 278.329,215.324L321.73,215.324C321.83,215.324 321.93,215.224 321.93,215.124L321.93,215.024L307.329,190.124ZM307.03,202.424L296.829,196.324L307.03,190.424L307.03,202.424ZM296.63,196.724L306.829,202.824L296.63,208.924L296.63,196.724ZM296.329,208.824L285.829,202.724L296.329,196.624L296.329,208.824ZM307.03,203.024L307.03,214.924L296.829,209.024L307.03,203.024ZM299.93,178.024L306.93,190.124L285.93,202.224L299.93,178.024ZM285.53,202.924L306.53,215.024L278.53,215.024L285.53,202.924ZM307.329,215.124L307.329,190.824L321.329,215.024L307.329,215.024L307.329,215.124ZM321.829,221.724L278.529,221.724C278.429,221.724 278.329,221.824 278.329,221.924L278.329,222.024L300.029,259.524C300.129,259.624 300.229,259.624 300.229,259.524L321.929,222.024C322.029,221.924 321.929,221.824 321.829,221.724ZM293.129,234.724L303.329,240.824L293.129,246.724L293.129,234.724ZM293.229,234.424L303.429,228.324L303.429,240.424L293.229,234.424ZM303.729,228.324L314.229,234.424L303.729,240.524L303.729,228.324ZM293.129,234.124L293.129,222.224L303.329,228.124L293.129,234.124ZM292.729,222.024L292.729,246.224L278.729,222.024L292.729,222.024ZM300.129,259.124L293.129,247.024L314.129,234.824L300.129,259.124ZM314.529,234.224L293.529,222.124L321.529,222.124L314.529,234.224ZM269.929,221.623C269.829,221.623 269.829,221.623 269.829,221.723L248.129,259.223C248.129,259.323 248.129,259.423 248.229,259.423L291.629,259.423C291.729,259.423 291.829,259.323 291.829,259.223L291.829,259.123L270.129,221.623L269.929,221.623ZM269.929,222.123L276.929,234.223L255.929,246.323L269.929,222.123ZM276.929,246.523L266.729,240.423L276.929,234.523L276.929,246.523ZM266.629,240.723L276.829,246.823L266.629,252.923L266.629,240.723ZM266.329,252.923L255.829,246.823L266.329,240.723L266.329,252.923ZM276.929,247.123L276.929,259.023L266.729,253.123L276.929,247.123ZM255.529,247.023L276.529,259.123L248.529,259.123L255.529,247.023ZM277.329,259.123L277.329,234.923L291.329,259.123L277.329,259.123ZM337.33,234.223L330.13,221.723C330.13,221.623 330.03,221.623 329.93,221.623L329.83,221.723L308.23,259.223C308.23,259.323 308.229,259.423 308.329,259.423L351.729,259.423C351.829,259.423 351.93,259.323 351.93,259.223L351.93,259.123L337.33,234.223ZM315.829,246.823L326.33,240.723L326.33,252.823L315.829,246.823ZM337.03,246.523L326.83,240.423L337.03,234.523L337.03,246.523ZM336.83,246.823L326.63,252.923L326.63,240.823L336.83,246.823ZM337.03,247.123L337.03,259.023L326.83,253.123L337.03,247.123ZM329.93,222.123L336.93,234.223L315.93,246.423L329.93,222.123ZM315.53,247.023L326.43,253.323L336.53,259.123L308.53,259.123L315.53,247.023ZM337.33,259.123L337.33,234.923L351.33,259.123L337.33,259.123ZM270.029,127.323C270.129,127.423 270.229,127.423 270.229,127.323L291.829,89.823C291.829,89.723 291.829,89.623 291.729,89.623L248.329,89.623C248.229,89.623 248.129,89.723 248.129,89.823L248.129,89.923L270.029,127.323ZM284.229,102.223L273.729,108.323L273.729,96.223L284.229,102.223ZM263.129,102.523L273.329,108.623L263.129,114.523L263.129,102.523ZM263.229,102.223L273.429,96.123L273.429,108.223L263.229,102.223ZM263.129,101.923L263.129,90.023L273.329,95.923L263.129,101.923ZM270.129,126.923L263.129,114.823L284.129,102.623L270.129,126.923ZM284.529,102.023L273.629,95.723L263.529,89.923L291.529,89.923L284.529,102.023ZM262.729,89.823L262.729,114.023L248.729,89.823L262.729,89.823ZM285.329,114.524L278.129,127.024C278.129,127.124 278.129,127.224 278.229,127.224L321.629,127.224C321.729,127.224 321.829,127.124 321.829,127.024L321.829,126.924L300.229,89.424C300.229,89.324 300.129,89.324 300.029,89.324L299.929,89.424L285.329,114.524ZM285.529,114.824L296.429,121.124L306.529,126.924L278.529,126.924L285.529,114.824ZM296.629,108.524L306.829,114.624L296.629,120.724L296.629,108.524ZM307.029,114.924L307.029,126.824L296.829,120.924L307.029,114.924ZM307.029,114.324L296.829,108.224L307.029,102.324L307.029,114.324ZM296.329,120.724L285.829,114.624L296.329,108.524L296.329,120.724ZM307.329,126.924L307.329,102.724L321.329,126.924L307.329,126.924ZM299.929,89.924L306.929,102.024L285.929,114.124L299.929,89.924ZM321.829,133.623L278.529,133.623C278.429,133.623 278.329,133.723 278.329,133.823L278.329,133.923L300.029,171.323C300.129,171.423 300.229,171.423 300.229,171.323L321.929,133.823C322.029,133.723 321.929,133.623 321.829,133.623ZM314.229,146.323L303.729,152.423L303.729,140.323L314.229,146.323ZM293.129,146.523L303.329,152.623L293.129,158.523L293.129,146.523ZM303.429,152.323L293.229,146.223L303.429,140.123L303.429,152.323ZM293.129,146.023L293.129,134.123L303.329,140.023L293.129,146.023ZM292.729,133.923L292.729,158.123L278.729,133.923L292.729,133.923ZM300.129,170.923L293.129,158.823L314.129,146.723L300.129,170.923ZM314.529,146.023L303.629,139.723L293.529,133.923L321.529,133.923L314.529,146.023ZM269.929,133.524C269.829,133.524 269.829,133.524 269.829,133.624L248.129,171.124C248.129,171.224 248.129,171.324 248.229,171.324L291.629,171.324C291.729,171.324 291.829,171.224 291.829,171.124L291.829,171.024L270.129,133.524L269.929,133.524ZM269.929,134.024L276.929,146.124L255.929,158.224L269.929,134.024ZM255.829,158.724L266.329,152.624L266.329,164.724L255.829,158.724ZM276.929,158.424L266.729,152.324L276.929,146.424L276.929,158.424ZM266.629,152.624L276.829,158.724L266.629,164.824L266.629,152.624ZM276.929,159.024L276.929,170.924L266.729,165.024L276.929,159.024ZM255.529,158.924L266.429,165.224L276.529,171.024L248.529,171.024L255.529,158.924ZM277.329,171.024L277.329,146.824L291.329,171.024L277.329,171.024ZM337.33,146.124L330.13,133.624C330.13,133.524 330.03,133.524 329.93,133.524L329.83,133.624L308.23,171.124C308.23,171.224 308.229,171.324 308.329,171.324L351.729,171.324C351.829,171.324 351.93,171.224 351.93,171.124L351.93,171.024C351.73,171.124 337.33,146.124 337.33,146.124ZM315.829,158.724L326.33,152.624L326.33,164.724L315.829,158.724ZM337.03,158.424L326.83,152.324L337.03,146.424L337.03,158.424ZM336.83,158.724L326.63,164.824L326.63,152.724L336.83,158.724ZM337.03,159.024L337.03,170.924L326.83,165.024L337.03,159.024ZM329.93,134.024L336.93,146.124L315.93,158.324L329.93,134.024ZM315.53,158.924L326.43,165.224L336.53,171.024L308.53,171.024L315.53,158.924ZM337.33,171.024L337.33,146.824L351.33,171.024L337.33,171.024ZM338.229,303.523L381.529,303.523C381.629,303.523 381.729,303.423 381.729,303.323L381.729,303.223L360.129,265.723C360.129,265.623 360.029,265.623 359.929,265.623L359.829,265.723L338.129,303.223C338.129,303.423 338.129,303.523 338.229,303.523ZM367.029,290.623L356.829,284.523L367.029,278.623L367.029,290.623ZM366.829,290.923L356.629,297.023L356.629,284.823L366.829,290.923ZM356.329,296.923L345.829,290.823L356.329,284.723L356.329,296.923ZM367.029,291.123L367.029,303.023L356.829,297.123L367.029,291.123ZM367.329,303.223L367.329,279.023L381.329,303.223L367.329,303.223ZM359.929,266.223L366.929,278.323L345.929,290.523L359.929,266.223ZM345.529,291.123L366.529,303.223L338.529,303.223L345.529,291.123ZM351.829,177.623L308.529,177.623C308.429,177.623 308.329,177.723 308.329,177.823L308.329,177.923L330.029,215.423C330.029,215.523 330.129,215.523 330.229,215.523L330.329,215.423L351.929,177.923C352.029,177.823 351.929,177.723 351.829,177.623ZM323.129,190.623L333.329,196.723L323.129,202.623L323.129,190.623ZM323.229,190.323L333.429,184.223L333.429,196.323L323.229,190.323ZM333.729,184.223L344.229,190.323L333.729,196.423L333.729,184.223ZM323.129,190.023L323.129,178.123L333.329,184.023L323.129,190.023ZM322.729,178.023L322.729,202.223L308.729,178.023L322.729,178.023ZM330.129,215.023L323.129,202.923L344.129,190.723L330.129,215.023ZM344.529,190.123L323.529,178.023L351.529,178.023L344.529,190.123ZM367.33,190.124L360.13,177.624C360.13,177.524 360.03,177.524 359.93,177.524L359.83,177.624L338.229,215.124C338.229,215.224 338.23,215.324 338.33,215.324L381.729,215.324C381.829,215.324 381.93,215.224 381.93,215.124L381.93,215.024L367.33,190.124ZM367.03,202.424L356.83,196.324L367.03,190.424L367.03,202.424ZM356.63,196.724L366.83,202.824L356.63,208.924L356.63,196.724ZM356.33,208.824L345.83,202.724L356.33,196.624L356.33,208.824ZM367.03,203.024L367.03,214.924L356.83,209.024L367.03,203.024ZM359.93,178.024L366.93,190.124L345.93,202.224L359.93,178.024ZM345.53,202.924L366.53,215.024L338.53,215.024L345.53,202.924ZM367.33,215.124L367.33,190.824L381.33,215.024L367.33,215.024L367.33,215.124ZM381.829,221.724L338.53,221.724C338.43,221.724 338.329,221.824 338.329,221.924L338.329,222.024L359.93,259.524C360.03,259.624 360.13,259.624 360.13,259.524L381.729,222.024C382.029,221.924 381.929,221.824 381.829,221.724ZM374.229,234.424L363.729,240.524L363.729,228.424L374.229,234.424ZM353.13,234.724L363.329,240.824L353.13,246.724L353.13,234.724ZM353.229,234.424L363.43,228.324L363.43,240.424L353.229,234.424ZM353.13,234.124L353.13,222.224L363.329,228.124L353.13,234.124ZM352.729,222.024L352.729,246.224L338.729,222.024L352.729,222.024ZM360.13,259.124L353.13,247.024L374.13,234.824L360.13,259.124ZM374.53,234.224L363.63,227.924L353.53,222.124L381.53,222.124L374.53,234.224ZM330.03,127.323C330.03,127.423 330.129,127.423 330.229,127.423C330.229,127.423 330.23,127.423 330.33,127.323L351.93,89.823C351.93,89.723 351.93,89.623 351.83,89.623L308.43,89.623C308.33,89.623 308.23,89.723 308.23,89.823L308.23,89.923L330.03,127.323ZM344.229,102.223L333.729,108.323L333.729,96.223L344.229,102.223ZM323.13,102.523L333.33,108.623L323.13,114.523L323.13,102.523ZM323.229,102.223L333.43,96.123L333.43,108.223L323.229,102.223ZM323.13,101.923L323.13,90.023L333.33,95.923L323.13,101.923ZM330.13,126.923L323.13,114.823L344.13,102.623L330.13,126.923ZM344.53,102.023L333.63,95.723L323.53,89.923L351.53,89.923L344.53,102.023ZM322.73,89.823L322.73,114.023L308.73,89.823L322.73,89.823ZM345.329,114.524L338.129,127.024C338.129,127.124 338.129,127.224 338.229,127.224L381.629,127.224C381.729,127.224 381.829,127.124 381.829,127.024L381.829,126.924L360.229,89.424C360.229,89.324 360.129,89.324 360.029,89.324L359.929,89.424C359.829,89.524 345.329,114.524 345.329,114.524ZM345.529,114.824L356.429,121.124L366.529,126.924L338.529,126.924L345.529,114.824ZM356.629,108.524L366.829,114.624L356.629,120.724L356.629,108.524ZM367.029,114.924L367.029,126.824L356.829,120.924L367.029,114.924ZM367.029,114.324L356.829,108.224L367.029,102.324L367.029,114.324ZM356.329,120.724L345.829,114.624L356.329,108.524L356.329,120.724ZM367.329,126.924L367.329,102.724L381.329,126.924L367.329,126.924ZM359.929,89.924L366.929,102.024L345.929,114.124L359.929,89.924ZM381.829,133.623L338.529,133.623C338.429,133.623 338.329,133.723 338.329,133.823L338.329,133.923L360.029,171.323C360.029,171.423 360.129,171.423 360.229,171.423L360.329,171.323L381.929,133.823C382.029,133.823 381.929,133.723 381.829,133.623ZM374.229,146.323L363.729,152.423L363.729,140.323L374.229,146.323ZM353.129,146.523L363.329,152.623L353.129,158.523L353.129,146.523ZM353.229,146.323L363.429,140.223L363.429,152.323L353.229,146.323ZM353.129,146.023L353.129,134.123L363.329,140.023L353.129,146.023ZM352.729,133.923L352.729,158.123L338.729,133.923L352.729,133.923ZM360.129,170.923L353.129,158.823L374.129,146.623L360.129,170.923ZM374.529,146.023L363.629,139.723L353.529,133.923L381.529,133.923L374.529,146.023ZM21.63,38.933L21.63,38.733L0.03,1.233C0.03,1.133 -0.071,1.133 -0.171,1.133C-0.171,1.133 -0.17,1.133 -0.27,1.233L-21.971,38.733C-21.971,38.833 -21.971,38.933 -21.871,38.933L21.63,38.933ZM-14.271,26.333L-3.77,20.233L-3.77,32.333L-14.271,26.333ZM6.93,26.033L-3.27,19.933L6.93,14.133L6.93,26.033ZM6.73,26.333L-3.47,32.433L-3.47,20.333L6.73,26.333ZM6.93,26.633L6.93,38.533L-3.27,32.633L6.93,26.633ZM-0.171,1.633L6.83,13.733L-14.171,25.933L-0.171,1.633ZM-14.471,26.533L-3.57,32.833L6.53,38.633L-21.471,38.633L-14.471,26.533ZM7.23,38.633L7.23,14.433L21.23,38.633L7.23,38.633ZM14.63,58.033L21.83,45.533C21.83,45.433 21.83,45.333 21.73,45.333L-21.671,45.333C-21.77,45.333 -21.871,45.433 -21.871,45.533L-21.871,45.633L-0.27,83.133C-0.17,83.233 -0.07,83.233 -0.07,83.133L14.63,58.033ZM14.43,57.733L-6.57,45.633L21.43,45.633L14.43,57.733ZM3.33,64.033L-6.871,57.933L3.33,51.833L3.33,64.033ZM-6.97,57.633L-6.97,45.733L3.23,51.633L-6.97,57.633ZM-6.97,58.233L3.23,64.333L-6.97,70.233L-6.97,58.233ZM3.629,51.933L14.13,58.033L3.629,64.133L3.629,51.933ZM-7.27,45.633L-7.27,69.833L-21.27,45.633L-7.27,45.633ZM0.129,82.633L-6.871,70.533L14.03,58.433L0.129,82.633ZM29.93,39.033C30.029,39.133 30.13,39.133 30.13,39.033L51.83,1.533C51.83,1.433 51.83,1.333 51.73,1.333L8.33,1.333C8.23,1.333 8.129,1.433 8.129,1.533L8.129,1.633L29.93,39.033ZM44.23,13.933L33.73,20.033L33.73,7.933L44.23,13.933ZM23.03,14.233L33.23,20.333L23.03,26.133L23.03,14.233ZM23.23,13.933L33.43,7.833L33.43,19.933L23.23,13.933ZM23.03,13.633L23.03,1.733L33.23,7.633L23.03,13.633ZM30.13,38.633L23.13,26.533L44.13,14.333L30.13,38.633ZM44.43,13.633L33.53,7.333L23.43,1.533L51.429,1.533L44.43,13.633ZM22.73,1.533L22.73,25.833L8.73,1.633L22.73,1.633L22.73,1.533ZM82.73,26.533L89.93,39.033C90.03,39.133 90.129,39.133 90.129,39.033L111.829,1.533C111.829,1.433 111.83,1.333 111.73,1.333L68.33,1.333C68.23,1.333 68.129,1.433 68.129,1.533L68.129,1.633L82.73,26.533ZM104.23,13.933L93.73,20.033L93.73,7.933L104.23,13.933ZM83.03,14.233L93.23,20.333L83.03,26.133L83.03,14.233ZM83.23,13.933L93.43,7.833L93.43,19.933L83.23,13.933ZM83.03,13.633L83.03,1.733L93.23,7.633L83.03,13.633ZM90.129,38.633L83.129,26.533L104.13,14.333L90.129,38.633ZM104.53,13.633L93.629,7.333L83.53,1.533L111.53,1.533L104.53,13.633ZM82.73,1.533L82.73,25.833L68.73,1.633L82.73,1.633L82.73,1.533ZM38.23,38.933L81.53,38.933C81.629,38.933 81.73,38.833 81.73,38.733L81.73,38.633L60.03,1.233C60.03,1.133 59.929,1.133 59.83,1.133C59.83,1.133 59.83,1.133 59.73,1.233L38.03,38.733C38.03,38.833 38.03,38.933 38.23,38.933ZM45.73,26.333L56.23,20.233L56.23,32.333L45.73,26.333ZM66.93,26.033L56.73,19.933L66.93,14.133L66.93,26.033ZM66.83,26.333L56.63,32.433L56.63,20.333L66.83,26.333ZM66.93,26.633L66.93,38.533L56.73,32.633L66.93,26.633ZM67.23,38.633L67.23,14.433L81.23,38.633L67.23,38.633ZM59.929,1.633L66.93,13.733L45.93,25.933L59.929,1.633ZM45.53,26.533L56.429,32.833L66.53,38.633L38.53,38.633L45.53,26.533ZM81.93,45.333C81.93,45.233 81.83,45.233 81.83,45.233L38.53,45.233C38.43,45.233 38.33,45.333 38.33,45.433L38.33,45.533L60.03,83.033C60.13,83.133 60.23,83.133 60.23,83.033L81.93,45.533L81.93,45.333ZM53.03,58.233L63.23,64.333L53.03,70.233L53.03,58.233ZM63.33,64.033L53.13,57.933L63.33,51.833L63.33,64.033ZM63.73,51.933L74.23,58.033L63.73,64.133L63.73,51.933ZM53.03,57.633L53.03,45.733L63.23,51.633L53.03,57.633ZM52.73,45.633L52.73,69.833L38.73,45.633L52.73,45.633ZM60.13,82.633L53.13,70.533L74.129,58.433L60.13,82.633ZM74.43,57.733L53.43,45.633L81.43,45.633L74.43,57.733ZM30.029,45.233C30.029,45.133 29.93,45.133 29.83,45.133L29.73,45.233L8.129,82.733C8.129,82.833 8.13,82.933 8.23,82.933L51.63,82.933C51.73,82.933 51.83,82.833 51.83,82.733L51.83,82.633L30.029,45.233ZM36.93,70.133L26.73,64.033L36.93,58.133L36.93,70.133ZM26.63,64.333L36.83,70.433L26.63,76.533L26.63,64.333ZM26.33,76.433L15.83,70.334L26.33,64.233L26.33,76.433ZM36.93,70.633L36.93,82.533L26.73,76.633L36.93,70.633ZM29.83,45.733L36.83,57.833L15.83,69.933L29.83,45.733ZM15.53,70.633L36.53,82.733L8.53,82.733L15.53,70.633ZM37.23,82.733L37.23,58.533L51.23,82.733L37.23,82.733ZM98.23,38.933L141.53,38.933C141.63,38.933 141.73,38.833 141.73,38.733L141.73,38.633L120.13,1.133C120.13,1.033 120.03,1.033 119.93,1.033C119.93,1.033 119.929,1.033 119.829,1.133L98.23,38.633C98.03,38.833 98.03,38.933 98.23,38.933ZM105.73,26.333L116.23,20.233L116.23,32.333L105.73,26.333ZM126.93,26.033L116.73,19.933L126.93,14.133L126.93,26.033ZM126.829,26.333L116.63,32.433L116.63,20.333L126.829,26.333ZM126.93,26.633L126.93,38.533L116.73,32.633L126.93,26.633ZM127.23,38.633L127.23,14.433L141.23,38.633L127.23,38.633ZM119.93,1.633L126.93,13.733L105.93,25.933L119.93,1.633ZM105.53,26.533L116.43,32.833L126.53,38.633L98.53,38.633L105.53,26.533ZM134.73,58.033L141.93,45.533C141.93,45.433 141.929,45.333 141.829,45.333L98.43,45.333C98.33,45.333 98.23,45.433 98.23,45.533L98.23,45.633L119.829,83.133C119.929,83.233 120.03,83.233 120.03,83.133L134.73,58.033ZM134.53,57.733L113.53,45.633L141.53,45.633L134.53,57.733ZM123.329,64.033L113.13,57.933L123.329,51.833L123.329,64.033ZM113.03,57.633L113.03,45.733L123.23,51.633L113.03,57.633ZM113.03,58.233L123.23,64.333L113.03,70.233L113.03,58.233ZM123.73,51.933L134.23,58.033L123.73,64.133L123.73,51.933ZM112.73,45.633L112.73,69.833L98.73,45.633L112.73,45.633ZM120.13,82.633L113.13,70.533L134.13,58.433L120.13,82.633ZM97.23,57.833L90.03,45.333C90.03,45.233 89.93,45.233 89.83,45.233L89.73,45.333L68.129,82.833C68.129,82.933 68.129,83.033 68.23,83.033L111.63,83.033C111.73,83.033 111.829,82.933 111.829,82.833L111.829,82.733L97.23,57.833ZM96.93,70.133L86.73,64.033L96.93,58.133L96.93,70.133ZM86.629,64.333L96.83,70.433L86.629,76.533L86.629,64.333ZM86.33,76.433L75.83,70.333L86.33,64.233L86.33,76.433ZM96.93,70.633L96.93,82.533L86.73,76.633L96.93,70.633ZM89.93,45.733L96.93,57.833L75.93,69.933L89.93,45.733ZM75.53,70.633L96.53,82.733L68.53,82.733L75.53,70.633ZM97.23,82.733L97.23,58.533L111.23,82.733L97.23,82.733ZM150.23,39.033L171.93,1.533C171.93,1.433 171.929,1.333 171.829,1.333L128.43,1.333C128.33,1.333 128.23,1.433 128.23,1.533L128.23,1.633L149.93,39.133C150.03,39.033 150.13,39.133 150.23,39.033ZM150.13,38.633L143.13,26.533L164.13,14.333L150.13,38.633ZM164.23,13.933L153.73,20.033L153.73,7.933L164.23,13.933ZM143.03,14.233L153.23,20.333L143.03,26.133L143.03,14.233ZM143.23,13.933L153.43,7.833L153.43,19.933L143.23,13.933ZM143.03,13.633L143.03,1.733L153.23,7.633L143.03,13.633ZM164.53,13.633L153.63,7.333L143.53,1.533L171.53,1.533L164.53,13.633ZM142.73,1.533L142.73,25.833L128.73,1.633L142.73,1.633L142.73,1.533ZM202.73,26.533L210.03,39.033C210.13,39.133 210.23,39.133 210.23,39.033L231.829,1.533C231.829,1.433 231.83,1.333 231.73,1.333L188.329,1.333C188.229,1.333 188.13,1.433 188.13,1.533L188.13,1.633L202.73,26.533ZM224.23,13.933L213.73,20.033L213.73,7.933L224.23,13.933ZM203.03,14.233L213.23,20.333L203.03,26.133L203.03,14.233ZM203.23,13.933L213.43,7.833L213.43,19.933L203.23,13.933ZM203.03,13.633L203.03,1.733L213.23,7.633L203.03,13.633ZM210.13,38.633L203.13,26.533L224.13,14.333L210.13,38.633ZM224.53,13.633L213.63,7.333L203.53,1.533L231.53,1.533L224.53,13.633ZM202.73,1.533L202.73,25.833L188.73,1.633L202.73,1.633L202.73,1.533ZM158.23,38.933L201.53,38.933C201.63,38.933 201.73,38.833 201.73,38.733L201.73,38.633L180.13,1.133C180.13,1.033 180.03,1.033 179.93,1.033C179.93,1.033 179.929,1.033 179.829,1.133L158.13,38.633C158.03,38.833 158.13,38.933 158.23,38.933ZM165.829,26.333L176.329,20.233L176.329,32.333L165.829,26.333ZM186.93,26.033L176.73,19.933L186.93,14.133L186.93,26.033ZM186.829,26.333L176.63,32.433L176.63,20.333L186.829,26.333ZM186.93,26.633L186.93,38.533L176.73,32.633L186.93,26.633ZM187.329,38.633L187.329,14.433L201.329,38.633L187.329,38.633ZM179.93,1.633L186.93,13.733L165.93,25.933L179.93,1.633ZM165.53,26.533L176.43,32.833L186.53,38.633L158.53,38.633L165.53,26.533ZM201.93,45.333C201.93,45.233 201.829,45.233 201.829,45.233L158.53,45.233C158.43,45.233 158.329,45.333 158.329,45.433L158.329,45.533L180.03,83.033C180.13,83.133 180.23,83.133 180.23,83.033L201.93,45.533L201.93,45.333ZM173.03,58.233L183.23,64.333L173.03,70.233L173.03,58.233ZM183.43,64.033L173.23,57.933L183.43,51.833L183.43,64.033ZM183.73,51.933L194.23,58.033L183.73,64.133L183.73,51.933ZM173.03,57.633L173.03,45.733L183.23,51.633L173.03,57.633ZM172.73,45.633L172.73,69.833L158.73,45.633L172.73,45.633ZM180.13,82.633L173.13,70.533L194.13,58.433L180.13,82.633ZM194.53,57.733L173.53,45.633L201.53,45.633L194.53,57.733ZM150.03,45.233C150.03,45.133 149.929,45.133 149.829,45.133C149.829,45.133 149.83,45.133 149.73,45.233L128.13,82.733C128.13,82.833 128.13,82.933 128.23,82.933L171.63,82.933C171.73,82.933 171.829,82.833 171.829,82.733L171.829,82.633L150.03,45.233ZM156.93,70.133L146.73,64.033L156.93,58.133L156.93,70.133ZM146.63,64.333L156.829,70.433L146.63,76.533L146.63,64.333ZM146.329,76.433L135.829,70.334L146.329,64.233L146.329,76.433ZM156.93,70.633L156.93,82.533L146.73,76.633L156.93,70.633ZM149.93,45.733L156.93,57.833L135.93,69.933L149.93,45.733ZM135.53,70.633L156.53,82.733L128.53,82.733L135.53,70.633ZM157.329,82.733L157.329,58.533L171.329,82.733L157.329,82.733ZM218.23,38.933L261.53,38.933C261.63,38.933 261.73,38.833 261.73,38.733L261.73,38.633L240.13,1.133C240.13,1.033 240.03,1.033 239.93,1.033C239.93,1.033 239.929,1.033 239.829,1.133L218.23,38.633C218.03,38.833 218.13,38.933 218.23,38.933ZM225.829,26.333L236.329,20.233L236.329,32.333L225.829,26.333ZM246.93,26.033L236.73,19.933L246.93,14.133L246.93,26.033ZM246.829,26.333L236.63,32.433L236.63,20.333L246.829,26.333ZM246.93,26.633L246.93,38.533L236.73,32.633L246.93,26.633ZM247.329,38.633L247.329,14.433L261.329,38.633L247.329,38.633ZM239.93,1.633L246.93,13.733L225.93,25.933L239.93,1.633ZM225.53,26.533L236.43,32.833L246.53,38.633L218.53,38.633L225.53,26.533ZM254.73,58.033L261.93,45.533C261.93,45.433 261.929,45.333 261.829,45.333L218.43,45.333C218.33,45.333 218.23,45.433 218.23,45.533L218.23,45.633L232.63,70.633L240.03,83.033C240.13,83.133 240.23,83.133 240.23,83.033L254.73,58.033ZM254.53,57.733L233.53,45.633L261.53,45.633L254.53,57.733ZM243.43,64.033L233.23,57.933L243.43,51.833L243.43,64.033ZM233.03,57.633L233.03,45.733L243.23,51.633L233.03,57.633ZM233.03,58.233L243.23,64.333L233.03,70.233L233.03,58.233ZM243.73,51.933L254.23,58.033L243.73,64.133L243.73,51.933ZM232.73,45.633L232.73,69.833L218.73,45.633L232.73,45.633ZM240.13,82.633L233.13,70.533L254.13,58.433L240.13,82.633ZM217.23,57.833L210.03,45.333C210.03,45.233 209.929,45.233 209.829,45.233C209.829,45.233 209.83,45.233 209.73,45.333L188.13,82.833C188.13,82.933 188.13,83.033 188.23,83.033L231.63,83.033C231.73,83.033 231.829,82.933 231.829,82.833L231.829,82.733L217.23,57.833ZM216.93,70.133L206.73,64.033L216.93,58.133L216.93,70.133ZM206.63,64.333L216.829,70.433L206.63,76.533L206.63,64.333ZM206.329,76.433L195.829,70.333L206.329,64.233L206.329,76.433ZM216.93,70.633L216.93,82.533L206.73,76.633L216.93,70.633ZM209.93,45.733L216.93,57.833L195.93,69.933L209.93,45.733ZM195.53,70.633L216.53,82.733L188.53,82.733L195.53,70.633ZM217.329,82.733L217.329,58.533L231.329,82.733L217.329,82.733ZM270.23,39.033C270.13,39.133 270.03,39.033 270.03,39.033L248.13,1.633L248.13,1.533C248.13,1.433 248.229,1.333 248.329,1.333L291.73,1.333C291.83,1.333 291.829,1.433 291.829,1.533L270.23,39.033ZM270.13,38.633L263.13,26.533L284.13,14.433L270.13,38.633ZM284.23,13.933L273.73,20.033L273.73,7.933L284.23,13.933ZM263.13,14.233L273.329,20.333L263.13,26.233L263.13,14.233ZM273.43,19.933L263.23,13.833L273.43,7.733L273.43,19.933ZM263.13,13.633L263.13,1.733L273.329,7.633L263.13,13.633ZM284.53,13.633L273.63,7.333L263.53,1.533L291.53,1.533L284.53,13.633ZM262.73,1.533L262.73,25.833L248.73,1.633L262.73,1.633L262.73,1.533ZM322.829,26.533L330.029,39.033C330.129,39.133 330.229,39.133 330.229,39.033L351.829,1.533C351.829,1.433 351.829,1.333 351.729,1.333L308.329,1.333C308.229,1.333 308.13,1.433 308.13,1.533L308.13,1.633L322.829,26.533ZM344.229,13.933L333.729,20.033L333.729,7.933L344.229,13.933ZM323.13,14.233L333.329,20.333L323.13,26.233L323.13,14.233ZM323.229,13.933L333.43,7.833L333.43,19.933L323.229,13.933ZM323.13,13.633L323.13,1.733L333.329,7.633L323.13,13.633ZM330.13,38.633L323.13,26.533L333.63,20.433L344.13,14.433L330.13,38.633ZM344.529,13.633L333.63,7.333L323.529,1.533L351.529,1.533L344.529,13.633ZM322.729,1.533L322.729,25.833L308.729,1.633L322.729,1.633L322.729,1.533ZM278.23,38.933L321.53,38.933C321.63,38.933 321.73,38.833 321.73,38.733L321.73,38.633L300.13,1.133C300.13,1.033 300.03,1.033 299.93,1.033C299.93,1.033 299.929,1.033 299.829,1.133L278.23,38.633C278.03,38.833 278.13,38.933 278.23,38.933ZM285.829,26.333L296.329,20.233L296.329,32.333L285.829,26.333ZM307.03,26.033L296.829,19.933L307.03,14.133L307.03,26.033ZM306.829,26.333L296.63,32.433L296.63,20.333L306.829,26.333ZM307.03,26.633L307.03,38.533L296.829,32.633L307.03,26.633ZM307.329,38.633L307.329,14.433L321.329,38.633L307.329,38.633ZM299.93,1.633L306.93,13.733L285.93,25.933L299.93,1.633ZM285.53,26.533L296.43,32.833L306.53,38.633L278.53,38.633L285.53,26.533ZM321.93,45.333C321.93,45.233 321.829,45.233 321.829,45.233L278.53,45.233C278.43,45.233 278.329,45.333 278.329,45.433L278.329,45.533L300.03,83.033C300.13,83.133 300.23,83.133 300.23,83.033L321.93,45.533L321.93,45.333ZM293.13,58.233L303.329,64.333L293.13,70.233L293.13,58.233ZM303.43,64.033L293.23,57.933L303.43,51.833L303.43,64.033ZM303.73,51.933L314.23,58.033L303.73,64.133L303.73,51.933ZM293.13,57.633L293.13,45.733L303.329,51.633L293.13,57.633ZM292.73,45.633L292.73,69.833L278.73,45.633L292.73,45.633ZM300.13,82.633L293.13,70.533L314.13,58.433L300.13,82.633ZM314.53,57.733L293.53,45.633L321.53,45.633L314.53,57.733ZM270.03,45.233C270.03,45.133 269.929,45.133 269.829,45.133C269.829,45.133 269.83,45.133 269.73,45.233L248.03,82.733C248.03,82.833 248.03,82.933 248.13,82.933L291.53,82.933C291.63,82.933 291.73,82.833 291.73,82.733L291.73,82.633L270.03,45.233ZM276.93,70.133L266.73,64.033L276.93,58.133L276.93,70.133ZM266.63,64.333L276.829,70.433L266.63,76.533L266.63,64.333ZM266.329,76.433L255.829,70.334L266.329,64.233L266.329,76.433ZM276.93,70.633L276.93,82.533L266.73,76.633L276.93,70.633ZM269.93,45.733L276.93,57.833L255.93,69.933L269.93,45.733ZM255.53,70.633L276.53,82.733L248.53,82.733L255.53,70.633ZM277.329,82.733L277.329,58.533L291.329,82.733L277.329,82.733ZM338.23,38.933L381.53,38.933C381.63,38.933 381.73,38.833 381.73,38.733L381.73,38.633L360.13,1.133C360.13,1.033 360.03,1.033 359.93,1.033L359.83,1.133L338.23,38.633C338.13,38.833 338.13,38.933 338.23,38.933ZM345.83,26.333L356.33,20.233L356.33,32.333L345.83,26.333ZM367.03,26.033L356.83,19.933L367.03,14.133L367.03,26.033ZM366.83,26.333L356.63,32.433L356.63,20.333L366.83,26.333ZM367.03,26.633L367.03,38.533L356.83,32.633L367.03,26.633ZM367.33,38.633L367.33,14.433L381.33,38.633L367.33,38.633ZM359.93,1.633L366.93,13.733L345.93,25.933L359.93,1.633ZM345.53,26.533L356.43,32.833L366.53,38.633L338.53,38.633L345.53,26.533ZM374.729,58.033L381.93,45.533C381.93,45.433 381.93,45.333 381.83,45.333L338.43,45.333C338.33,45.333 338.229,45.433 338.229,45.533L338.229,45.633L352.63,70.633L360.03,83.033C360.13,83.133 360.229,83.133 360.229,83.033L374.729,58.033ZM374.53,57.733L353.53,45.633L381.53,45.633L374.53,57.733ZM363.43,64.033L353.229,57.933L363.43,51.833L363.43,64.033ZM353.13,57.633L353.13,45.733L363.33,51.633L353.13,57.633ZM353.13,58.233L363.33,64.333L353.13,70.233L353.13,58.233ZM363.729,51.933L374.229,58.033L363.729,64.133L363.729,51.933ZM352.729,45.633L352.729,69.833L338.729,45.633L352.729,45.633ZM360.13,82.633L353.13,70.533L374.13,58.433L360.13,82.633ZM337.329,57.833L330.029,45.333C330.029,45.233 329.929,45.233 329.829,45.233L329.729,45.333L308.13,82.833C308.13,82.933 308.129,83.033 308.229,83.033L351.63,83.033C351.73,83.033 351.829,82.933 351.829,82.833L351.829,82.733L337.329,57.833ZM337.029,70.133L326.829,64.033L337.029,58.133L337.029,70.133ZM326.63,64.333L336.829,70.433L326.63,76.533L326.63,64.333ZM326.329,76.433L315.829,70.333L326.329,64.233L326.329,76.433ZM337.029,70.633L337.029,82.533L326.829,76.633L337.029,70.633ZM329.93,45.733L336.93,57.833L315.93,69.933L329.93,45.733ZM315.529,70.633L336.529,82.733L308.529,82.733L315.529,70.633ZM337.329,82.733L337.329,58.533L351.329,82.733L337.329,82.733Z" style="fill:none;fill-rule:nonzero;stroke:url(#_Linear1);stroke-width:1px;"/>
            </g>
        </g>
    </g>
    <defs>
        <linearGradient id="_Linear1" x1="0" y1="0" x2="1" y2="0" gradientUnits="userSpaceOnUse" gradientTransform="matrix(-229.721,-262.632,262.632,-229.721,385.422,464.413)"><stop offset="0" style="stop-color:rgb(124,227,203);stop-opacity:0.8"/><stop offset="1" style="stop-color:rgb(124,227,203);stop-opacity:0"/></linearGradient>
    </defs>
</svg>
