<?xml version="1.0" encoding="UTF-8" standalone="no"?>
<!DOCTYPE svg PUBLIC "-//W3C//DTD SVG 1.1//EN" "http://www.w3.org/Graphics/SVG/1.1/DTD/svg11.dtd">
<svg width="100%" height="100%" viewBox="0 0 106 93" version="1.1" xmlns="http://www.w3.org/2000/svg" xmlns:xlink="http://www.w3.org/1999/xlink" xml:space="preserve" xmlns:serif="http://www.serif.com/" style="fill-rule:evenodd;clip-rule:evenodd;stroke-linejoin:round;stroke-miterlimit:2;">
    <g transform="matrix(1,0,0,1,-25176,-13096.8)">
        <g transform="matrix(1,0,0,1,19344.9,18078.9)">
            <g transform="matrix(2.98891,0,0,2.98891,5532.18,-5177.37)">
                <path d="M117.811,65.5C117.712,65.33 117.5,65.274 117.344,65.373C117.288,65.401 117.246,65.443 117.217,65.5L100.042,95.709C99.943,95.878 100.014,96.09 100.169,96.175C100.226,96.203 100.282,96.217 100.339,96.217L134.957,96.217C135.141,96.217 135.296,96.062 135.296,95.878C135.296,95.822 135.282,95.751 135.254,95.709L117.811,65.5ZM114.082,85.088L120.24,83.408L118.573,89.523L114.082,85.088Z" style="fill:white;fill-rule:nonzero;"/>
            </g>
            <g transform="matrix(2.98891,0,0,2.98891,5532.18,-5177.37)">
                <path d="M100.339,96.231L107.302,96.231L113.7,71.7L100.042,95.723C99.943,95.892 100.014,96.104 100.169,96.189C100.226,96.217 100.282,96.231 100.339,96.231Z" style="fill:white;fill-rule:nonzero;"/>
            </g>
            <g transform="matrix(2.98891,0,0,2.98891,5532.18,-5177.37)">
                <path d="M131.85,89.805L107.302,96.232L134.958,96.232C135.141,96.232 135.297,96.077 135.297,95.893C135.297,95.837 135.282,95.766 135.254,95.724L131.85,89.805Z" style="fill:white;fill-rule:nonzero;"/>
            </g>
            <g transform="matrix(2.98891,0,0,2.98891,5532.18,-5177.37)">
                <path d="M128.079,86.049L131.85,89.806L117.825,65.514C117.726,65.344 117.514,65.288 117.358,65.387C117.302,65.415 117.26,65.457 117.231,65.514L113.714,71.714L128.079,86.035L128.079,86.049Z" style="fill:white;fill-rule:nonzero;"/>
            </g>
            <g transform="matrix(2.98891,0,0,2.98891,5532.18,-5177.37)">
                <path d="M107.302,96.232L112.359,94.904L112.33,76.94L107.302,96.232Z" style="fill:white;fill-rule:nonzero;"/>
            </g>
            <g transform="matrix(2.98891,0,0,2.98891,5532.18,-5177.37)">
                <path d="M112.331,76.939L128.079,86.049L113.701,71.7L112.331,76.939Z" style="fill:white;fill-rule:nonzero;"/>
            </g>
            <g transform="matrix(2.98891,0,0,2.98891,5532.18,-5177.37)">
                <path d="M112.358,94.905L131.85,89.806L128.079,86.049L112.358,94.905Z" style="fill:white;fill-rule:nonzero;"/>
            </g>
            <g transform="matrix(2.98891,0,0,2.98891,5532.18,-5177.37)">
                <path d="M112.358,94.904L115.734,92.997L112.344,80.753L112.358,94.904Z" style="fill:white;fill-rule:nonzero;"/>
            </g>
            <g transform="matrix(2.98891,0,0,2.98891,5532.18,-5177.37)">
                <path d="M128.079,86.049L124.76,84.128L115.734,92.998L128.079,86.049Z" style="fill:white;fill-rule:nonzero;"/>
            </g>
            <g transform="matrix(2.98891,0,0,2.98891,5532.18,-5177.37)">
                <path d="M112.345,80.753L124.76,84.129L112.331,76.94L112.345,80.753Z" style="fill:white;fill-rule:nonzero;"/>
            </g>
            <g transform="matrix(2.98891,0,0,2.98891,5532.18,-5177.37)">
                <path d="M120.211,83.408L122.146,83.408L112.344,80.753L113.065,83.394L120.211,83.408Z" style="fill:white;fill-rule:nonzero;"/>
            </g>
            <g transform="matrix(2.98891,0,0,2.98891,5532.18,-5177.37)">
                <path d="M114.054,85.06L113.065,83.394L115.734,92.998L117.613,91.148L114.082,85.089L114.054,85.06Z" style="fill:white;fill-rule:nonzero;"/>
            </g>
            <g transform="matrix(2.98891,0,0,2.98891,5532.18,-5177.37)">
                <path d="M122.147,83.408L117.613,91.148L124.76,84.128L122.147,83.408Z" style="fill:white;fill-rule:nonzero;"/>
            </g>
            <g transform="matrix(2.98891,0,0,2.98891,5532.18,-5177.37)">
                <path d="M120.24,83.408L113.065,83.394L114.082,85.089L120.24,83.408Z" style="fill:white;fill-rule:nonzero;"/>
            </g>
            <g transform="matrix(2.98891,0,0,2.98891,5532.18,-5177.37)">
                <path d="M118.573,89.523L114.082,85.088L117.613,91.148L118.573,89.523Z" style="fill:white;fill-rule:nonzero;"/>
            </g>
            <g transform="matrix(2.98891,0,0,2.98891,5532.18,-5177.37)">
                <path d="M122.147,83.408L120.24,83.408L118.573,89.524L122.147,83.408Z" style="fill:white;fill-rule:nonzero;"/>
            </g>
            <g transform="matrix(2.98891,0,0,2.98891,5532.18,-5177.37)">
                <path d="M100.339,96.231L107.302,96.231L113.7,71.7L100.042,95.723C99.943,95.892 100.014,96.104 100.169,96.189C100.226,96.217 100.282,96.231 100.339,96.231Z" style="fill:url(#_Linear1);fill-rule:nonzero;"/>
            </g>
            <g transform="matrix(2.98891,0,0,2.98891,5532.18,-5177.37)">
                <path d="M131.85,89.805L107.302,96.232L134.958,96.232C135.141,96.232 135.297,96.077 135.297,95.893C135.297,95.837 135.282,95.766 135.254,95.724L131.85,89.805Z" style="fill:url(#_Linear2);fill-rule:nonzero;"/>
            </g>
            <g transform="matrix(2.98891,0,0,2.98891,5532.18,-5177.37)">
                <path d="M128.079,86.049L131.85,89.806L117.825,65.514C117.726,65.344 117.514,65.288 117.358,65.387C117.302,65.415 117.26,65.457 117.231,65.514L113.714,71.714L128.079,86.035L128.079,86.049Z" style="fill:url(#_Linear3);fill-rule:nonzero;"/>
            </g>
            <g transform="matrix(2.98891,0,0,2.98891,5532.18,-5177.37)">
                <path d="M107.302,96.232L112.359,94.904L112.33,76.94L107.302,96.232Z" style="fill:url(#_Linear4);fill-rule:nonzero;"/>
            </g>
            <g transform="matrix(2.98891,0,0,2.98891,5532.18,-5177.37)">
                <path d="M112.331,76.939L128.079,86.049L113.701,71.7L112.331,76.939Z" style="fill:url(#_Linear5);fill-rule:nonzero;"/>
            </g>
            <g transform="matrix(2.98891,0,0,2.98891,5532.18,-5177.37)">
                <path d="M112.358,94.905L131.85,89.806L128.079,86.049L112.358,94.905Z" style="fill:url(#_Linear6);fill-rule:nonzero;"/>
            </g>
            <g transform="matrix(2.98891,0,0,2.98891,5532.18,-5177.37)">
                <path d="M112.358,94.904L115.734,92.997L112.344,80.753L112.358,94.904Z" style="fill:url(#_Linear7);fill-rule:nonzero;"/>
            </g>
            <g transform="matrix(2.98891,0,0,2.98891,5532.18,-5177.37)">
                <path d="M128.079,86.049L124.76,84.128L115.734,92.998L128.079,86.049Z" style="fill:url(#_Linear8);fill-rule:nonzero;"/>
            </g>
            <g transform="matrix(2.98891,0,0,2.98891,5532.18,-5177.37)">
                <path d="M112.345,80.753L124.76,84.129L112.331,76.94L112.345,80.753Z" style="fill:url(#_Linear9);fill-rule:nonzero;"/>
            </g>
            <g transform="matrix(2.98891,0,0,2.98891,5532.18,-5177.37)">
                <path d="M120.211,83.408L122.146,83.408L112.344,80.753L113.065,83.394L120.211,83.408Z" style="fill:url(#_Linear10);fill-rule:nonzero;"/>
            </g>
            <g transform="matrix(2.98891,0,0,2.98891,5532.18,-5177.37)">
                <path d="M114.054,85.06L113.065,83.394L115.734,92.998L117.613,91.148L114.082,85.089L114.054,85.06Z" style="fill:url(#_Linear11);fill-rule:nonzero;"/>
            </g>
            <g transform="matrix(2.98891,0,0,2.98891,5532.18,-5177.37)">
                <path d="M122.147,83.408L117.613,91.148L124.76,84.128L122.147,83.408Z" style="fill:url(#_Linear12);fill-rule:nonzero;"/>
            </g>
            <g transform="matrix(2.98891,0,0,2.98891,5532.18,-5177.37)">
                <path d="M120.24,83.408L113.065,83.394L114.082,85.089L120.24,83.408Z" style="fill:url(#_Linear13);fill-rule:nonzero;"/>
            </g>
            <g transform="matrix(2.98891,0,0,2.98891,5532.18,-5177.37)">
                <path d="M118.573,89.523L114.082,85.088L117.613,91.148L118.573,89.523Z" style="fill:url(#_Linear14);fill-rule:nonzero;"/>
            </g>
            <g transform="matrix(2.98891,0,0,2.98891,5532.18,-5177.37)">
                <path d="M122.147,83.408L120.24,83.408L118.573,89.524L122.147,83.408Z" style="fill:url(#_Linear15);fill-rule:nonzero;"/>
            </g>
        </g>
    </g>
    <defs>
        <linearGradient id="_Linear1" x1="0" y1="0" x2="1" y2="0" gradientUnits="userSpaceOnUse" gradientTransform="matrix(-2.48,-23.602,23.602,-2.48,108.147,96.1413)"><stop offset="0" style="stop-color:rgb(195,196,195);stop-opacity:1"/><stop offset="0.09" style="stop-color:rgb(216,216,216);stop-opacity:1"/><stop offset="0.21" style="stop-color:rgb(233,234,233);stop-opacity:1"/><stop offset="0.36" style="stop-color:rgb(246,246,246);stop-opacity:1"/><stop offset="0.55" style="stop-color:rgb(253,253,253);stop-opacity:1"/><stop offset="1" style="stop-color:white;stop-opacity:1"/></linearGradient>
        <linearGradient id="_Linear2" x1="0" y1="0" x2="1" y2="0" gradientUnits="userSpaceOnUse" gradientTransform="matrix(-19.125,13.8964,-13.8964,-19.125,131.226,88.9396)"><stop offset="0" style="stop-color:rgb(195,196,195);stop-opacity:1"/><stop offset="0.09" style="stop-color:rgb(216,216,216);stop-opacity:1"/><stop offset="0.21" style="stop-color:rgb(233,234,233);stop-opacity:1"/><stop offset="0.36" style="stop-color:rgb(246,246,246);stop-opacity:1"/><stop offset="0.55" style="stop-color:rgb(253,253,253);stop-opacity:1"/><stop offset="1" style="stop-color:white;stop-opacity:1"/></linearGradient>
        <linearGradient id="_Linear3" x1="0" y1="0" x2="1" y2="0" gradientUnits="userSpaceOnUse" gradientTransform="matrix(21.872,9.7383,-9.7383,21.872,113.344,72.5012)"><stop offset="0" style="stop-color:rgb(195,196,195);stop-opacity:1"/><stop offset="0.09" style="stop-color:rgb(216,216,216);stop-opacity:1"/><stop offset="0.21" style="stop-color:rgb(233,234,233);stop-opacity:1"/><stop offset="0.36" style="stop-color:rgb(246,246,246);stop-opacity:1"/><stop offset="0.55" style="stop-color:rgb(253,253,253);stop-opacity:1"/><stop offset="1" style="stop-color:white;stop-opacity:1"/></linearGradient>
        <linearGradient id="_Linear4" x1="0" y1="0" x2="1" y2="0" gradientUnits="userSpaceOnUse" gradientTransform="matrix(-1.95,-18.5543,18.5543,-1.95,110.792,95.8633)"><stop offset="0" style="stop-color:rgb(183,184,184);stop-opacity:1"/><stop offset="0.11" style="stop-color:rgb(201,202,202);stop-opacity:1"/><stop offset="0.3" style="stop-color:rgb(225,225,225);stop-opacity:1"/><stop offset="0.51" style="stop-color:rgb(242,242,242);stop-opacity:1"/><stop offset="0.73" style="stop-color:rgb(252,252,252);stop-opacity:1"/><stop offset="1" style="stop-color:white;stop-opacity:1"/></linearGradient>
        <linearGradient id="_Linear5" x1="0" y1="0" x2="1" y2="0" gradientUnits="userSpaceOnUse" gradientTransform="matrix(17.334,7.7179,-7.7179,17.334,112.223,75.0102)"><stop offset="0" style="stop-color:rgb(183,184,184);stop-opacity:1"/><stop offset="0.11" style="stop-color:rgb(201,202,202);stop-opacity:1"/><stop offset="0.3" style="stop-color:rgb(225,225,225);stop-opacity:1"/><stop offset="0.51" style="stop-color:rgb(242,242,242);stop-opacity:1"/><stop offset="0.73" style="stop-color:rgb(252,252,252);stop-opacity:1"/><stop offset="1" style="stop-color:white;stop-opacity:1"/></linearGradient>
        <linearGradient id="_Linear6" x1="0" y1="0" x2="1" y2="0" gradientUnits="userSpaceOnUse" gradientTransform="matrix(-15.185,11.0317,-11.0317,-15.185,129.697,86.8364)"><stop offset="0" style="stop-color:rgb(183,184,184);stop-opacity:1"/><stop offset="0.11" style="stop-color:rgb(201,202,202);stop-opacity:1"/><stop offset="0.3" style="stop-color:rgb(225,225,225);stop-opacity:1"/><stop offset="0.51" style="stop-color:rgb(242,242,242);stop-opacity:1"/><stop offset="0.73" style="stop-color:rgb(252,252,252);stop-opacity:1"/><stop offset="1" style="stop-color:white;stop-opacity:1"/></linearGradient>
        <linearGradient id="_Linear7" x1="0" y1="0" x2="1" y2="0" gradientUnits="userSpaceOnUse" gradientTransform="matrix(-3.751,-13.0837,13.0837,-3.751,114.224,94.3708)"><stop offset="0" style="stop-color:rgb(183,184,184);stop-opacity:1"/><stop offset="0.21" style="stop-color:rgb(206,207,207);stop-opacity:1"/><stop offset="0.52" style="stop-color:rgb(233,233,233);stop-opacity:1"/><stop offset="0.79" style="stop-color:rgb(249,249,249);stop-opacity:1"/><stop offset="1" style="stop-color:white;stop-opacity:1"/></linearGradient>
        <linearGradient id="_Linear8" x1="0" y1="0" x2="1" y2="0" gradientUnits="userSpaceOnUse" gradientTransform="matrix(-9.439,9.7724,-9.7724,-9.439,126.627,84.6365)"><stop offset="0" style="stop-color:rgb(183,184,184);stop-opacity:1"/><stop offset="0.21" style="stop-color:rgb(206,207,207);stop-opacity:1"/><stop offset="0.52" style="stop-color:rgb(233,233,233);stop-opacity:1"/><stop offset="0.79" style="stop-color:rgb(249,249,249);stop-opacity:1"/><stop offset="1" style="stop-color:white;stop-opacity:1"/></linearGradient>
        <linearGradient id="_Linear9" x1="0" y1="0" x2="1" y2="0" gradientUnits="userSpaceOnUse" gradientTransform="matrix(13.392,3.3389,-3.3389,13.392,111.853,78.8647)"><stop offset="0" style="stop-color:rgb(183,184,184);stop-opacity:1"/><stop offset="0.21" style="stop-color:rgb(206,207,207);stop-opacity:1"/><stop offset="0.52" style="stop-color:rgb(233,233,233);stop-opacity:1"/><stop offset="0.79" style="stop-color:rgb(249,249,249);stop-opacity:1"/><stop offset="1" style="stop-color:white;stop-opacity:1"/></linearGradient>
        <linearGradient id="_Linear10" x1="0" y1="0" x2="1" y2="0" gradientUnits="userSpaceOnUse" gradientTransform="matrix(9.953,0.7837,-0.7837,9.953,112.236,82.0366)"><stop offset="0" style="stop-color:rgb(171,172,172);stop-opacity:1"/><stop offset="0.19" style="stop-color:rgb(189,190,190);stop-opacity:1"/><stop offset="0.73" style="stop-color:rgb(237,237,237);stop-opacity:1"/><stop offset="1" style="stop-color:white;stop-opacity:1"/></linearGradient>
        <linearGradient id="_Linear11" x1="0" y1="0" x2="1" y2="0" gradientUnits="userSpaceOnUse" gradientTransform="matrix(-4.298,-8.8133,8.8133,-4.298,116.861,92.4539)"><stop offset="0" style="stop-color:rgb(171,172,172);stop-opacity:1"/><stop offset="0.19" style="stop-color:rgb(189,190,190);stop-opacity:1"/><stop offset="0.73" style="stop-color:rgb(237,237,237);stop-opacity:1"/><stop offset="1" style="stop-color:white;stop-opacity:1"/></linearGradient>
        <linearGradient id="_Linear12" x1="0" y1="0" x2="1" y2="0" gradientUnits="userSpaceOnUse" gradientTransform="matrix(-5.491,8.1398,-8.1398,-5.491,123.699,83.4059)"><stop offset="0" style="stop-color:rgb(171,172,172);stop-opacity:1"/><stop offset="0.19" style="stop-color:rgb(189,190,190);stop-opacity:1"/><stop offset="0.73" style="stop-color:rgb(237,237,237);stop-opacity:1"/><stop offset="1" style="stop-color:white;stop-opacity:1"/></linearGradient>
        <linearGradient id="_Linear13" x1="0" y1="0" x2="1" y2="0" gradientUnits="userSpaceOnUse" gradientTransform="matrix(6.282,-2.3477,2.3477,6.282,113.511,84.5759)"><stop offset="0" style="stop-color:rgb(159,160,160);stop-opacity:1"/><stop offset="0.17" style="stop-color:rgb(165,166,166);stop-opacity:1"/><stop offset="0.4" style="stop-color:rgb(181,182,182);stop-opacity:1"/><stop offset="0.66" style="stop-color:rgb(208,209,209);stop-opacity:1"/><stop offset="0.94" style="stop-color:rgb(246,246,246);stop-opacity:1"/><stop offset="1" style="stop-color:white;stop-opacity:1"/></linearGradient>
        <linearGradient id="_Linear14" x1="0" y1="0" x2="1" y2="0" gradientUnits="userSpaceOnUse" gradientTransform="matrix(-5.059,-4.2461,4.2461,-5.059,118.379,90.2446)"><stop offset="0" style="stop-color:rgb(159,160,160);stop-opacity:1"/><stop offset="0.17" style="stop-color:rgb(165,166,166);stop-opacity:1"/><stop offset="0.4" style="stop-color:rgb(181,182,182);stop-opacity:1"/><stop offset="0.66" style="stop-color:rgb(208,209,209);stop-opacity:1"/><stop offset="0.94" style="stop-color:rgb(246,246,246);stop-opacity:1"/><stop offset="1" style="stop-color:white;stop-opacity:1"/></linearGradient>
        <linearGradient id="_Linear15" x1="0" y1="0" x2="1" y2="0" gradientUnits="userSpaceOnUse" gradientTransform="matrix(-1.153,6.5385,-6.5385,-1.153,120.932,83.1999)"><stop offset="0" style="stop-color:rgb(159,160,160);stop-opacity:1"/><stop offset="0.17" style="stop-color:rgb(165,166,166);stop-opacity:1"/><stop offset="0.4" style="stop-color:rgb(181,182,182);stop-opacity:1"/><stop offset="0.66" style="stop-color:rgb(208,209,209);stop-opacity:1"/><stop offset="0.94" style="stop-color:rgb(246,246,246);stop-opacity:1"/><stop offset="1" style="stop-color:white;stop-opacity:1"/></linearGradient>
    </defs>
</svg>
