<?xml version="1.0" encoding="utf-8"?>
<!-- Generator: Adobe Illustrator 28.0.0, SVG Export Plug-In . SVG Version: 6.00 Build 0)  -->
<svg version="1.1" id="Layer_1" xmlns="http://www.w3.org/2000/svg" xmlns:xlink="http://www.w3.org/1999/xlink" x="0px" y="0px"
	 viewBox="0 0 360 320.3" style="enable-background:new 0 0 360 320.3;" xml:space="preserve">
<style type="text/css">
	.st0{fill:#FFFFFF;}
</style>
<path class="st0" d="M110.2,133c2.6,0,4.7-4.5,4.7-10s-2.1-10-4.7-10s-4.7,4.5-4.7,10S107.6,133,110.2,133z"/>
<path class="st0" d="M246.4,113.1c-2.6,0-4.7,4.5-4.7,10c0,5.5,2.1,10,4.7,10s4.7-4.5,4.7-10S249,113.1,246.4,113.1z"/>
<path class="st0" d="M221.4,230.1c-11.6-3.5-23,0-28.6,2.2c3.5,1.9,6.9,4.5,10.2,7.7c0.7,0.7,0.7,1.9,0,2.6c-0.7,0.7-1.9,0.7-2.6,0
	c-8-7.8-16.7-11.5-25.8-11.1c-13.1,0.7-23.9,9.9-28.7,14.6c14.9,6.3,31.8,9.7,49.6,9.7c16.5,0,32.4-2.9,46.8-8.4
	C236.9,238.5,229.9,232.6,221.4,230.1L221.4,230.1z"/>
<path class="st0" d="M186.6,0C121.8,0,65.3,32.8,35.5,81.5c-20.3,2.6-32.3-9.3-32.3-9.3c-11.7,33,11.9,112.2,11.9,112.2l0,0
	c12.7,76.9,84.6,135.9,171.4,135.9c95.8,0,173.4-71.7,173.4-160.1S282.4,0,186.6,0z M294.8,124.1c0,16.3-13.2,29.5-29.5,29.5
	s-29.5-13.2-29.5-29.5s13.2-29.5,29.5-29.5S294.8,107.8,294.8,124.1z M273.8,61.5l2.2,5L236.8,84l-2.2-5L273.8,61.5L273.8,61.5z
	 M119.7,61.5L158.9,79l-2.2,5l-39.2-17.5C117.4,66.5,119.7,61.5,119.7,61.5z M128.3,94.6c16.3,0,29.5,13.2,29.5,29.5
	s-13.2,29.5-29.5,29.5s-29.5-13.2-29.5-29.5S112,94.6,128.3,94.6z M305.7,192.3c-10.5,32.1-33.5,48.2-55.7,56.1
	c-16.9,7.4-35.6,11.2-54.4,11.2c-21.8,0-43.6-5.1-62.2-15.4c-20.5-9.8-40-27.7-47.8-60c-4.8-17-5.7-37-1.7-60l0,0l0,0
	c0,0.2,0.1,0.3,0.1,0.5c0.6,2.7,4.2,16.3,21.8,28.7c2,1.3,4.2,2.5,6.5,3.7l10.2,32.9l10.5-24.4c16.1,5.1,34.9,8.3,54,9.2
	c3.1,0.1,6.4,0.1,9.7,0.1c13.7,0,25.8-0.9,36.4-2.4c9.7-1.5,19-3.6,27.6-6.4L271,190l10.1-32.6c2.1-1.2,4.1-2.4,6-3.6
	c0.3-0.2,0.7-0.5,1-0.7l0,0c9.8-7,15.2-14.4,18.2-20c1.4-2.8,2.6-5.8,3.4-9C315.1,150.7,313,173.4,305.7,192.3L305.7,192.3z"/>
</svg>
